<svg width="1728" height="1117" viewBox="0 0 1728 1117" fill="none" xmlns="http://www.w3.org/2000/svg">
<g clip-path="url(#clip0_3_1425)">
<path d="M349.198 0C351.427 3.77776 353.952 7.42108 355.831 11.3602C367.553 35.9492 376.375 61.5331 380.9 88.4345C382.001 94.9683 382.175 101.865 381.477 108.466C379.503 127.247 367.594 139.831 348.863 142.022C339.155 143.152 329.138 142.573 319.337 141.78C300.216 140.221 281.19 138.85 262.07 142.184C237.78 146.418 218.123 158.33 202.333 176.99C195.431 185.151 190.759 194.467 188.583 204.967C187.053 212.361 187.563 219.675 191.054 226.41C197.821 239.437 207.637 249.695 220.822 256.202C234.652 263.032 252.429 260.598 264.648 250.932C264.648 250.69 264.755 250.34 264.635 250.233C257.25 243.484 255.706 234.88 256.753 225.456C257.048 222.794 257.357 220.118 257.787 217.47C260.029 203.811 270.542 196.712 284.131 199.643C302.204 203.555 311.401 219.11 305.775 236.789C298.31 260.235 281.553 274.674 259.277 283.198C213.209 300.836 162.226 268.302 154.801 222.337C151.941 204.591 156.063 187.853 164.831 172.607C184.139 139.051 213.115 118.294 250.899 109.931C274.087 104.796 297.424 105.616 320.827 107.996C327.124 108.641 333.475 109.071 339.799 109.071C347.453 109.071 350.138 106.678 350.125 98.9881C350.125 92.6963 349.346 86.297 348.017 80.1262C342.404 54.2196 333.462 29.4827 321.015 6.03635C319.994 4.11386 319.283 2.0166 318.437 0.013444C328.709 0 338.954 0 349.198 0Z" fill="white" fill-opacity="0.08"/>
<path d="M-0.000122709 1028.94C12.2454 1022.9 25.4308 1020.6 38.8042 1019.04C60.8918 1016.46 82.7645 1017.82 103.979 1024.49C113.432 1027.46 122.321 1032.34 131.317 1036.65C134.043 1037.96 135.291 1037.67 136.688 1035.03C139.91 1028.94 144.019 1023.48 149.793 1019.5C154.398 1016.33 159.38 1014.12 165.073 1014.01C174.74 1013.84 180.648 1021.94 176.902 1030.87C174.27 1037.15 170.887 1043.15 167.516 1049.07C162.414 1058.04 158.104 1067.29 155.835 1077.4C155.593 1078.48 155.392 1079.55 155.244 1080.64C153.404 1093.8 157.392 1100.35 170.511 1102.68C186.717 1105.55 202.615 1103.47 217.613 1096.36C223.091 1093.76 226.058 1089.5 225.911 1082.95C225.723 1075.32 230.221 1069.42 236.867 1067.33C243.514 1065.25 251.033 1067.68 255.437 1073.58C260.418 1080.22 260.808 1087.61 258.082 1095.16C255.048 1103.59 250.415 1111.32 243.084 1116.43C219.519 1132.83 193.699 1141.06 164.697 1136.21C162.656 1135.87 160.655 1135.29 158.668 1134.69C130.847 1126.26 117.393 1104.93 121.676 1076.12C122.133 1073.02 123.637 1069.36 122.522 1066.96C121.475 1064.71 117.568 1063.82 114.963 1062.26C91.6398 1048.39 66.2357 1047.1 40.1737 1049.83C26.2364 1051.28 12.8496 1054.86 -0.0135498 1060.42C-0.000122709 1049.95 -0.000122709 1039.44 -0.000122709 1028.94Z" fill="white" fill-opacity="0.08"/>
<path d="M260.62 -4.47826e-05C261.734 2.28543 262.835 4.58435 263.977 6.85639C268.448 15.7563 271.993 24.9654 272.61 35.0215C273.456 48.6269 266.904 58.9518 253.893 63.0657C247.22 65.1764 240.103 66.2788 233.108 66.8166C216.942 68.0534 200.681 68.0534 184.891 72.5437C168.523 77.1953 152.76 83.3392 137.641 91.1502C135.157 92.4408 132.807 94.0003 130.364 95.385C116.373 103.384 108.222 115.121 106.584 131.415C105.765 139.481 105.362 139.454 112.68 142.372C119.703 145.182 125.906 149.255 130.928 154.902C133.076 157.322 135.103 160.118 136.245 163.116C139.534 171.707 132.754 179.881 123.717 178.267C120.414 177.676 117.339 175.888 114.063 174.96C107.524 173.132 101.012 171.034 94.3388 169.959C87.2761 168.816 81.046 171.478 76.333 176.923C71.8618 182.085 67.7397 187.544 63.3088 192.733C61.1873 195.207 58.9852 197.815 56.2998 199.549C51.023 202.977 45.1553 201.055 42.7116 195.234C41.7583 192.948 41.0466 190.192 41.342 187.786C43.4904 170.214 50.2308 154.848 65.5779 145.007C70.7071 141.713 72.4123 138.661 72.7346 132.652C74.1981 105.656 85.5843 84.119 108.666 68.9542C132.673 53.1844 159.017 44.3651 187.254 41.0982C199.084 39.7269 211.101 39.9689 223.024 39.4312C229.469 39.1488 235.914 38.7993 242.359 38.4094C245.608 38.2212 247.045 36.5004 245.971 33.2873C243.97 27.2913 242.131 21.2011 239.714 15.3799C237.525 10.0964 234.625 5.10867 232.047 -0.0134888C241.58 -4.47826e-05 251.1 -4.47826e-05 260.62 -4.47826e-05Z" fill="white" fill-opacity="0.08"/>
<path d="M1068.1 -0.000150604C1079.1 13.2691 1084.68 28.5818 1085.2 45.7632C1085.61 58.8711 1080.93 70.0027 1071.21 78.7144C1058.31 90.2762 1043.08 96.1243 1025.68 95.4253C1016.04 95.0488 1007.65 91.2442 1000.92 84.2802C999.097 82.3846 997.633 82.2636 995.216 82.9761C977.479 88.1789 959.957 87.4933 943.052 79.7899C927.114 72.5301 917.218 56.5587 917.917 40.0764C918.615 23.6075 933.17 10.4862 949.47 11.6289C964.697 12.691 973.303 26.2828 967.275 39.7403C965.314 44.1096 963.918 44.2709 961.125 40.399C960.843 40.0091 960.588 39.5789 960.306 39.1891C957.057 34.766 954.076 33.1258 951.484 34.3627C946.395 36.796 943.656 41.9585 944.811 46.8925C945.831 51.2752 948.369 54.6631 951.954 57.204C962.696 64.8133 974.498 66.4804 987.16 63.3076C989.644 62.6892 989.845 60.9952 990.235 59.0055C991.564 52.297 996.76 47.9949 1003.06 48.2234C1009.34 48.452 1014.22 53.117 1014.78 60.0676C1015.22 65.5258 1018.1 69.1692 1022.84 70.8093C1026.76 72.1672 1031.13 72.6915 1035.3 72.7049C1038.49 72.7049 1041.78 71.5756 1044.86 70.4867C1060.77 64.894 1067.35 53.6145 1064.18 37.0649C1061.64 23.7823 1056.12 12.0322 1045.49 3.14574C1044.37 2.21811 1043.49 1.03504 1042.49 -0.0270386C1051.02 -0.000150604 1059.56 -0.000150604 1068.1 -0.000150604Z" fill="white" fill-opacity="0.08"/>
<path d="M0 390.615C6.86125 393.438 14.1387 395.522 20.5032 399.206C43.5172 412.515 54.89 438.072 50.9693 465.982C47.4514 491.001 34.5882 510.885 16.7033 527.851C11.601 532.678 5.5991 536.549 0.0134271 540.852C0.0134271 530.594 0.0134271 520.336 0.0134271 510.065C0.429667 509.85 0.92647 509.702 1.26215 509.393C14.3804 497.441 23.7257 483.096 28.264 465.834C31.4865 453.56 30.842 441.541 24.2762 430.423C18.7577 421.119 10.7282 414.935 0 412.596C0 405.269 0 397.942 0 390.615Z" fill="white" fill-opacity="0.08"/>
<path d="M-0.000122709 609.013C0.953201 607.924 1.96023 606.875 2.84642 605.732C11.1444 595.085 20.1405 585.042 31.8489 578.118C37.3272 574.878 43.4768 572.539 49.5861 570.711C54.5542 569.232 59.3342 570.993 62.5567 575.376C65.8732 579.906 65.8195 584.908 62.9998 589.505C60.7978 593.108 57.9915 596.416 55.0644 599.494C48.4314 606.485 41.2882 613.019 34.8432 620.171C18.771 638.011 8.15012 658.836 2.22878 682.094C1.70512 684.178 0.751795 686.141 -0.0135498 688.157C-0.000122709 661.78 -0.000122709 635.39 -0.000122709 609.013Z" fill="white" fill-opacity="0.08"/>
<path d="M1296.51 -4.47836e-05C1304.36 22.5052 1288.45 49.6083 1264.24 54.9724C1232.67 61.9767 1205.59 33.0318 1214.76 2.11066C1214.96 1.41157 1215.09 0.699042 1215.25 -0.0134888C1223.54 -0.0134888 1231.84 -0.0134888 1240.14 -0.0134888C1238.77 3.09207 1236.94 6.09008 1236.1 9.34353C1232.39 23.5673 1241.87 35.2904 1255.62 33.4889C1264.39 32.3462 1270.81 27.5736 1274.02 19.2249C1276.73 12.1533 1275.61 5.55232 1270.16 -0.0134888C1278.94 -4.47836e-05 1287.73 -4.47836e-05 1296.51 -4.47836e-05Z" fill="white" fill-opacity="0.08"/>
<path d="M1312.83 593.27C1313.28 594.628 1313.51 595.528 1313.85 596.375C1319.63 610.182 1326.81 623.183 1335.92 635.08C1348.5 651.522 1364.89 662.815 1383.86 670.559C1389.15 672.71 1394.56 674.579 1399.94 676.488C1406.02 678.652 1408.76 683.68 1406.82 692.029C1404.64 701.507 1402.27 711.093 1398.53 720.02C1386.17 749.502 1363.15 767.329 1333.34 776.74C1300.66 787.065 1268.32 785.371 1236.76 771.9C1191.64 752.635 1160.15 720.544 1145.29 673.221C1140.79 658.89 1138.83 644.115 1141.28 629.098C1141.83 625.683 1143.16 622.255 1144.78 619.176C1146.78 615.398 1150.22 613.14 1154.7 613.53C1159.17 613.906 1162.1 616.676 1163.57 620.736C1164.55 623.465 1165.04 626.382 1165.55 629.259C1167.24 638.616 1167.81 648.323 1170.67 657.29C1183.46 697.353 1211.27 724.107 1248.92 740.454C1276.21 752.312 1304.28 750.645 1331.32 738.424C1350.16 729.914 1362.31 715.22 1367.79 695.108C1368.68 691.841 1368.17 690.228 1364.77 688.803C1345.66 680.763 1330.11 668.045 1317.56 651.63C1301.45 630.563 1289.65 607.278 1281.97 581.869C1278.22 569.487 1274.41 557.119 1270.65 544.737C1270.19 543.218 1269.8 541.658 1269.61 540.099C1268.67 532.543 1272.9 525.794 1279.71 523.831C1286.42 521.882 1293.94 524.92 1296.57 531.979C1300.59 542.72 1308.43 549.577 1316.96 556.608C1337.66 573.695 1361.92 583.496 1386.45 593.095C1398.35 597.747 1410.09 602.855 1421.63 608.327C1451.6 622.551 1477.62 642.649 1500.83 665.934C1529.17 694.382 1545.61 729.215 1550.19 769.386C1554.76 809.53 1525.1 844.323 1498.73 854.473C1483.02 860.509 1466.84 863.709 1450.13 863.776C1437.21 863.83 1424.29 863.037 1411.38 862.633C1409.83 862.58 1408.27 862.62 1406.33 862.62C1406.81 863.83 1407.09 864.717 1407.51 865.551C1413.01 876.723 1418.88 887.733 1423.9 899.107C1426.48 904.942 1427.62 911.408 1429.23 917.646C1429.62 919.125 1429.41 920.806 1429.25 922.379C1428.11 933.282 1418.16 938.162 1408.89 932.246C1402.67 928.267 1398.39 922.432 1394.89 916.073C1392.42 911.583 1390.47 906.81 1388 902.32C1380.18 888.11 1372.3 873.926 1364.33 859.81C1360.37 852.792 1356.18 845.923 1352.05 838.999C1350.81 836.902 1349.57 834.791 1348.08 832.868C1343.78 827.343 1343.06 822.328 1346.03 817.354C1349.01 812.366 1355.1 809.315 1361.17 811.009C1365.62 812.245 1370.13 814.383 1373.73 817.247C1377.86 820.54 1380.92 825.138 1384.64 829.01C1385.69 830.099 1387.42 831.363 1388.71 831.228C1402.18 829.897 1415.51 831.484 1428.87 832.734C1442.49 834.011 1456.11 835.006 1469.73 832.519C1501 826.805 1520.43 803.238 1519.91 771.335C1519.48 744.891 1509.97 721.23 1496.65 698.953C1483.63 677.16 1465.46 660.933 1442.07 650.837C1431.88 646.441 1421.59 642.246 1411.21 638.334C1384.13 628.13 1357.56 616.783 1331.74 603.702C1325.48 600.583 1319.45 596.967 1312.83 593.27Z" fill="white" fill-opacity="0.08"/>
<path d="M718.524 400.254C720.404 401.8 722.15 403.131 723.774 404.61C727.171 407.689 727.037 408.912 723.21 411.561C716.228 416.387 707.286 416.051 699.552 410.673C692.462 405.74 689.387 397.579 691.522 389.109C693.228 382.36 697.202 376.943 702.17 372.318C715.288 360.124 730.434 350.915 747.017 344.462C761.437 338.856 776.301 334.379 791.071 329.741C807.72 324.511 824.289 319.133 840.039 311.43C855.333 303.955 868.115 293.482 879.153 280.63C891.264 266.527 897.037 249.735 900.3 231.828C901.133 227.271 901.777 222.686 902.623 217.309C878.991 218.061 856.649 213.558 834.977 204.631C837.945 211.729 840.926 218.572 846.068 224.232C847.773 226.114 849.506 228.118 850.62 230.363C855.199 239.545 849.022 250.152 838.912 250.004C804.216 249.52 770.46 244.062 738.329 230.322C722.995 223.762 709.354 214.768 697.497 203.018C696.799 202.332 696.155 201.525 695.322 201.068C688.448 197.223 686.501 191.133 688.958 184.196C692.127 175.269 695.564 166.329 700.049 158.021C717.611 125.5 746.265 107.525 780.974 98.2352C817.294 88.5152 853.547 90.1285 889.344 100.911C937.815 115.511 978.916 141.498 1010.25 181.816C1022.11 197.075 1031.46 213.746 1036.26 232.662C1036.92 235.243 1037.5 237.932 1037.54 240.567C1037.61 245.084 1035.52 248.62 1031.28 250.461C1027.03 252.317 1023.06 251.362 1019.77 248.27C1018.03 246.63 1016.63 244.546 1015.28 242.543C1000.65 220.817 984.931 200.02 965.502 182.26C930.914 150.653 890.794 131.065 843.92 126.535C799.557 122.246 760.954 135.247 729.185 166.88C723.801 172.244 719.827 179.02 715.181 185.11C713.529 187.275 713.972 188.673 716.027 190.542C734.999 207.804 757.825 217.268 782.249 223.318C792.158 225.778 802.363 227.069 812.447 228.857C813.602 229.059 814.81 229.032 816.596 229.139C815.938 227.418 815.508 226.195 814.998 225.025C810.272 214.297 805.451 203.609 800.805 192.854C799.355 189.506 797.972 186.051 797.234 182.516C796.066 176.977 797.543 171.989 802.296 168.547C807.17 165.025 812.42 165.24 817.455 168.184C820.275 169.838 822.826 171.975 825.431 173.992C842.55 187.248 861.026 197.64 882.939 200.329C888.847 201.055 894.862 200.988 900.81 201.324C903.227 201.458 904.221 200.396 904.53 197.99C904.986 194.494 905.59 190.972 906.624 187.611C908.061 182.905 911.458 180.391 915.325 180.539C919.112 180.687 922.348 183.147 923.314 187.893C924.644 194.454 925.704 201.135 926.04 207.804C927.02 227.257 924.536 246.374 918.521 264.887C908.759 294.961 889.639 317.762 862.973 334.285C848.284 343.386 832.426 350.108 816.005 355.405C800.443 360.42 784.854 365.313 769.252 370.22C753.26 375.262 738.531 382.683 725.439 393.237C723.64 394.689 721.988 396.342 720.31 397.929C719.907 398.345 719.598 398.87 718.524 400.254Z" fill="white" fill-opacity="0.08"/>
<path d="M516.312 917.324C514.204 927.447 511.975 937.557 510.015 947.72C503.127 983.334 498.897 1019.16 501.529 1055.53C501.851 1059.91 502.388 1064.28 502.616 1068.68C503.019 1076.97 499.139 1083.67 492.425 1086.58C483.214 1090.58 472.835 1085.66 469.452 1075.28C467.558 1069.48 466.081 1063.51 464.994 1057.53C459.341 1026.46 443.927 1000.23 424.78 975.886C414.521 962.831 401.631 952.816 386.982 945.153C371.111 936.858 354.354 934.868 336.886 938.78C327.003 940.998 319.672 946.537 314.906 955.504C307.454 969.54 303.707 984.49 305.211 1000.34C307.279 1022.07 325.446 1036.59 347.117 1034.42C349.642 1034.17 352.152 1033.75 355.335 1033.32C354.542 1031.61 354.059 1030.31 353.374 1029.11C350.917 1024.89 348.259 1020.79 345.936 1016.5C342.176 1009.56 342.995 1002.44 347.869 997.544C352.703 992.691 360.061 991.723 366.855 995.164C373.166 998.364 377.65 1003.49 381.141 1009.5C392.662 1029.27 398.006 1050.74 398.248 1073.53C398.382 1085.83 397.294 1098.02 392.273 1109.4C390.339 1113.78 387.721 1118.11 384.498 1121.63C379.342 1127.29 371.756 1128.37 365.754 1125.26C359.886 1122.22 356.583 1115.64 357.805 1108.17C358.45 1104.24 359.792 1100.38 361.135 1096.6C365.136 1085.37 365.62 1064.04 361.82 1053.67C360.84 1054.04 359.819 1054.32 358.879 1054.77C315.564 1075.44 276.853 1043.21 272.087 1008.12C268.193 979.435 275.672 953.824 294.752 931.977C307.266 917.66 324.049 912.336 342.404 911.032C366.587 909.311 388.808 914.957 409.043 928.576C424.618 939.049 437.992 951.74 449.177 966.744C454.937 974.474 460.402 982.433 466.001 990.284C466.699 991.252 467.411 992.207 468.619 993.847C468.941 992.153 469.196 991.185 469.317 990.203C473.963 950.302 481.804 911.086 494.829 873.012C496.01 869.557 497.205 866.048 498.911 862.835C501.959 857.135 506.806 853.841 513.466 854.164C519.964 854.473 524.409 858.089 526.946 863.897C528.517 867.46 529.672 871.211 530.88 874.935C542.213 909.956 560.138 941.536 582.078 970.777C597.761 991.682 619.338 1005.03 643.775 1013.58C658.975 1018.91 666.696 1015.26 673.355 1000.47C677.679 990.889 679.008 980.564 680.042 970.212C680.176 968.881 680.163 967.51 680.405 966.206C681.156 962.2 683.291 959.202 687.279 957.924C691.227 956.661 695.215 957.387 697.685 960.506C700.169 963.652 702.613 967.483 703.258 971.328C706.641 991.521 703.486 1010.54 690.972 1027.28C679.518 1042.59 663.728 1047.85 645.306 1042.82C642.366 1042.02 639.412 1041.13 636.659 1039.87C606.757 1026.14 579.661 1008.42 560.111 981.411C545.811 961.662 532.948 940.864 519.454 920.537C518.729 919.448 518.098 918.292 517.413 917.162C516.997 917.189 516.661 917.256 516.312 917.324Z" fill="white" fill-opacity="0.08"/>
<path d="M820.14 717.035C818.771 718.756 817.952 719.737 817.2 720.759C805.854 736.045 791.97 748.467 775.724 758.416C752.105 772.881 728.742 787.75 705.218 802.378C689.79 811.963 679.8 825.622 674.537 842.884C672.791 848.598 672.389 854.392 673.664 860.254C676.215 872.017 688.689 880.043 699.941 877.14C700.384 877.019 700.8 876.763 701.217 876.575C700.169 871.722 699.109 866.989 698.169 862.257C697.914 860.953 697.833 859.582 697.9 858.251C698.142 853.814 699.713 850.05 704.144 848.343C708.669 846.595 712.724 847.98 715.705 851.515C718.605 854.944 721.384 858.614 723.438 862.58C732.851 880.702 758.94 884.749 773.777 863.306C775.227 861.222 776.382 858.372 776.328 855.898C776.059 842.978 759.96 828.943 746.775 829.978C746.775 831.027 746.721 832.089 746.788 833.137C747.057 837.211 746.345 837.923 742.236 837.372C736.14 836.566 731.32 833.769 728.89 827.894C726.392 821.858 727.91 816.305 731.965 811.506C738.826 803.399 747.822 801.732 757.557 804.26C762.444 805.523 767.358 807.527 771.615 810.215C786.667 819.72 796.71 833.164 801.154 850.534C802.631 856.315 802.269 862.176 800.443 867.89C791.608 895.558 758.846 912.712 731.481 903.463C724.459 901.083 718.108 896.727 711.448 893.272C711.569 892.95 711.69 892.614 711.811 892.277C711.314 892.614 710.763 892.882 710.334 893.286C693.362 909.163 671.221 904.458 658.035 893.985C642.956 882.006 637.156 865.712 639.506 847.119C643.306 816.991 658.572 793.397 683.479 776.242C689.683 771.967 696.504 768.539 703.271 765.191C726.661 753.643 748.158 738.962 769.735 724.537C785.096 714.266 796.146 699.652 804.82 683.398C809.802 674.068 812.192 664.039 811.091 653.351C809.6 638.912 803.8 634.946 790.077 639.329C786.747 640.391 783.605 642.112 780.45 643.698C777.966 644.948 777.335 646.925 778.731 649.492C781.121 653.889 783.605 658.245 785.713 662.762C786.519 664.469 787.11 666.956 786.425 668.448C785.995 669.39 782.961 669.591 781.175 669.376C776.475 668.798 771.669 668.301 767.184 666.876C749.474 661.256 743.311 642.327 754.495 627.512C757.584 623.411 761.692 619.808 766.002 616.985C770.635 613.947 775.885 611.58 781.162 609.846C813.575 599.172 838.791 615.802 841.946 649.936C844.054 672.777 845.8 695.659 847.787 718.527C848.78 729.874 850.647 741.046 855.185 751.64C857.642 757.354 861.657 761.279 867.444 763.511C870.089 764.533 872.103 764.049 873.929 761.857C880.227 754.261 881.113 743.842 873.097 736.986C870.734 734.969 868.653 732.388 867.068 729.686C860.932 719.253 867.243 707.732 879.354 707.019C886.913 706.576 893.238 709.48 898.514 714.615C910.303 726.096 914.224 740.159 911.297 756.171C909.202 767.652 903.952 777.6 895.668 785.855C885.45 796.045 873.258 799.218 859.348 795.615C837.408 789.942 823.685 773.876 820.745 749.314C819.644 740.159 820.261 730.815 820.114 721.552C820.127 720.369 820.14 719.213 820.14 717.035Z" fill="white" fill-opacity="0.08"/>
<path d="M979.815 1012.39C980.07 1007.57 980.379 1003.08 980.554 998.606C981.131 982.984 981.695 967.416 978.849 951.861C976.324 938.068 987.308 927.675 1001.14 930.337C1004.8 931.036 1008.42 932.435 1011.79 934.088C1015.93 936.118 1019.94 938.538 1023.75 941.146C1038.29 951.095 1053.58 959.685 1069.41 967.375C1083.38 974.151 1096.99 981.518 1108.93 991.628C1112.39 994.573 1123.14 994.317 1126.36 991.427C1127.04 990.822 1127.42 989.827 1127.84 988.953C1132.48 979.139 1143.79 977.136 1151.41 984.866C1156.57 990.082 1158.4 996.724 1157.82 1003.73C1156.45 1020.34 1148.18 1033.32 1134.11 1041.63C1124.36 1047.39 1116.15 1045.62 1109.43 1037.74C1106.65 1034.49 1103.85 1031.26 1101.2 1027.91C1090.54 1014.51 1077.5 1004.09 1062.19 996.441C1044.52 987.609 1026.88 978.695 1009.22 969.822C1008.82 969.621 1008.33 969.567 1007.7 969.392C1007.57 970.024 1007.41 970.454 1007.39 970.911C1006.83 989.464 1006.17 1008.02 1005.81 1026.57C1005.7 1031.91 1006.28 1037.27 1006.9 1042.58C1007.65 1048.98 1005.96 1054.29 1000.48 1057.85C994.867 1061.48 989.107 1060.95 983.629 1057.37C982.111 1056.37 980.742 1055.11 979.48 1053.81C968.496 1042.37 957.607 1030.82 946.57 1019.42C929.477 1001.77 916.345 981.492 906.154 959.201C896.205 937.436 886.175 915.724 876.172 893.985C875.567 892.681 874.869 891.43 874.198 890.14C873.701 890.409 873.406 890.462 873.325 890.61C862.275 913.788 851.828 937.221 846.686 962.549C843.047 980.483 841.489 998.606 844.994 1016.78C848.391 1034.41 863.953 1044.02 881.099 1039.54C884.47 1038.67 886.229 1037.27 886.135 1033.32C886.027 1028.72 886.484 1024.01 887.383 1019.5C888.807 1012.35 894.876 1007.94 901.347 1008.72C907.886 1009.51 912.411 1014.68 912.358 1022.05C912.196 1046.09 913.002 1070.17 909.457 1094.09C907.175 1109.49 903.818 1124.59 897.507 1138.88C895.601 1143.21 893.493 1147.66 890.512 1151.25C888.081 1154.18 884.523 1156.91 880.938 1158.01C872.009 1160.77 864.222 1152.9 866.249 1143.76C866.612 1142.12 867.216 1140.44 868.062 1138.99C878.36 1121.26 882.267 1101.71 884.228 1081.64C884.832 1075.47 885.221 1069.27 885.745 1062.68C884.349 1062.83 883.436 1062.84 882.549 1063.03C851.963 1069.63 825.014 1052.54 818.395 1022C813.105 997.584 815.508 973.398 821.711 949.481C826.948 929.275 835.407 910.333 845.034 891.887C849.049 884.211 853.198 876.588 857.065 868.831C858.797 865.349 860.073 861.638 861.375 857.968C863.08 853.209 866.101 849.969 871.23 849.283C876.346 848.611 880.441 850.749 883.019 855.051C886.604 861.007 890.136 867.043 893.063 873.335C902.757 894.133 912.022 915.146 921.783 935.903C926.765 946.497 932.122 956.943 937.95 967.08C948.208 984.92 963.273 998.565 978.5 1011.98C978.701 1012.16 978.996 1012.14 979.815 1012.39Z" fill="white" fill-opacity="0.08"/>
<path d="M661.54 70.4868C629.046 58.3604 595.989 51.2888 561.937 49.0975C536.775 47.4842 512.284 51.5039 488.344 58.925C475.104 63.0254 463.45 70.1373 453.675 80.0724C443.282 90.6394 443.484 98.0873 454.01 108.52C462.792 117.232 473.278 121.13 485.551 120.109C487.484 119.947 489.377 119.235 491.969 118.603C490.68 116.842 489.753 115.874 489.189 114.731C487.699 111.706 485.792 108.708 485.094 105.482C484.047 100.695 485.98 96.5278 490.089 93.7315C494.225 90.9217 498.656 90.9486 502.858 93.5298C504.684 94.6457 506.376 96.2321 507.638 97.9798C512.23 104.352 518.192 109.071 524.758 113.212C531.189 117.258 538.024 119.678 545.704 120.095C549.531 120.297 553.411 121.305 557.063 122.555C560.568 123.752 563.159 126.36 563.213 130.407C563.28 134.453 560.742 136.981 557.332 138.5C548.349 142.493 539.031 144.079 529.618 140.355C522.945 137.72 516.54 134.4 510.015 131.375C508.927 130.864 507.893 130.259 506.886 129.721C495.097 144.294 479.508 142.547 464.108 139.643C449.727 136.927 438.448 128.592 429.734 116.976C419.194 102.927 418.751 86.4852 428.58 71.9253C437.764 58.3066 450.466 48.7748 465.168 41.7974C480.448 34.5376 496.897 31.6203 513.358 28.5416C539.098 23.7287 564.771 25.1134 590.604 27.8828C612.262 30.2087 633.047 35.2501 653.336 43.0342C666.924 48.237 681.358 49.3126 695.752 50.0923C697.417 50.1864 699.135 49.7159 700.787 49.3394C704.56 48.479 708.226 48.2102 711.851 50.0385C712.885 50.5494 714.201 50.6166 715.396 50.657C717.463 50.7376 719.545 50.5091 721.612 50.6301C737.04 51.5846 749.474 44.8626 760.819 35.3577C760.913 35.277 760.994 35.1964 761.088 35.1157C765.814 30.9481 769.453 30.2759 772.743 32.9916C776.086 35.7476 776.731 40.9907 773.468 45.6827C763.263 60.3366 749.823 70.4734 731.683 72.4631C720.928 73.6462 710.025 73.3504 699.189 73.9688C697.068 74.0898 694.436 74.7486 692.999 76.1333C673.772 94.7398 657.941 115.793 647.79 140.759C644.42 149.04 643.359 157.725 643.937 166.638C644.178 170.416 644.527 174.207 644.433 177.972C644.152 190.434 634.511 200.168 622.212 198.366C579.849 192.155 538.574 200.181 497.219 206.997C471.707 211.205 446.357 216.394 420.98 221.355C416.24 222.283 411.621 224.004 407.056 225.644C402.128 227.405 398.288 227.055 395.898 224.178C393.548 221.355 393.508 217.053 396.126 212.859C401.537 204.201 408.842 197.371 418.617 194.44C429.788 191.093 441.214 188.283 452.721 186.428C500.898 178.617 549.249 172.11 597.922 168.157C601.937 167.835 605.951 167.512 609.98 167.391C612.276 167.324 613.242 166.625 613.054 164.138C611.725 146.311 616.895 130.138 625.595 114.839C634.471 99.2032 645.642 85.4097 658.76 73.1622C659.66 72.248 660.613 71.3607 661.54 70.4868Z" fill="white" fill-opacity="0.08"/>
<path d="M455.971 709.103C448.828 708.512 441.671 708.028 434.555 707.302C408.842 704.667 383.088 702.233 357.429 699.114C344.687 697.568 332.388 693.723 320.693 688.265C313.536 684.917 307.091 680.588 302.016 674.431C291.65 661.834 292.523 646.589 304.97 636.022C310.394 631.41 316.691 627.606 323.096 624.433C348.46 611.863 374.012 599.696 399.496 587.368C400.759 586.749 401.994 586.077 403.793 585.136C402.209 584.195 401.215 583.55 400.154 582.998C385.747 575.591 370.521 574.596 354.865 577.325C352.502 577.742 350.192 579.705 347.963 579.53C338.188 578.777 332.455 570.24 334.979 560.708C336.604 554.564 340.337 549.725 345.976 547.237C351.239 544.925 357.013 542.922 362.679 542.492C389.547 540.421 413.568 548.031 434.313 565.4C436.609 567.323 438.22 567.457 440.691 565.925C446.397 562.402 452.265 559.135 458.133 555.868C460.147 554.753 462.268 553.731 464.47 553.072C468.914 551.741 473.144 553.395 475.306 556.998C477.548 560.735 476.957 565.414 473.547 568.721C471.989 570.24 470.136 571.49 468.297 572.66C462.845 576.115 457.34 579.476 451.5 583.093C452.453 584.437 453.285 585.593 454.104 586.749C462.147 598.19 468.149 610.491 469.666 624.608C469.948 627.243 469.935 630.012 469.438 632.607C468.082 639.745 461.234 643.174 454.95 639.517C451.795 637.675 449.096 634.758 446.746 631.881C438.878 622.228 431.238 612.414 423.585 602.586C422.094 600.677 420.832 600.449 418.684 601.645C390.755 617.267 363.243 633.521 337.691 652.894C336.349 653.915 335.06 654.991 333.113 656.55C335.597 657.693 337.49 658.688 339.464 659.454C354.059 665.128 369.406 667.427 384.834 668.946C410.211 671.446 435.656 673.154 461.019 675.749C472.392 676.918 483.644 679.298 494.896 681.449C498.306 682.108 501.69 683.533 504.778 685.186C516.849 691.693 519.548 705.944 510.404 716.188C507.128 719.858 503.019 723.018 498.749 725.478C487.645 731.864 476.313 737.846 464.953 743.775C445.645 753.845 427.223 765.339 409.849 778.434C404.33 782.588 399.537 787.71 394.515 792.51C391.548 795.346 391.024 798.748 393.723 801.988C397.2 806.155 400.745 810.323 404.706 814.02C407.459 816.601 408.009 817.744 405.069 820.379C398.932 825.877 391.494 827.518 383.572 826.429C364.908 823.847 353.643 806.101 358.96 788.006C361.551 779.213 366.613 771.846 373.126 765.662C379.571 759.545 386.311 753.63 393.468 748.4C412.01 734.835 431.493 722.722 452.023 712.356C453.406 711.657 454.749 710.905 456.118 710.165C456.105 709.816 456.038 709.453 455.971 709.103Z" fill="white" fill-opacity="0.08"/>
<path d="M1115.63 438.664C1112.6 433.837 1109.63 429.643 1107.23 425.139C1105.41 421.738 1103.84 418.054 1102.98 414.303C1101.77 409.033 1103.55 404.328 1107.87 400.953C1112.23 397.566 1117.32 397.068 1121.98 399.703C1125.84 401.881 1129.49 404.798 1132.43 408.106C1139.4 415.943 1146.34 423.889 1152.47 432.372C1170.33 457.069 1190.14 480.071 1211.34 501.918C1214.13 504.795 1216.75 507.9 1219.06 511.194C1222.05 515.469 1223.02 520.161 1219.89 524.88C1217.17 529.007 1211.74 531.064 1206.22 529.451C1202.3 528.295 1198.19 526.776 1195 524.342C1186.77 518.064 1178.31 511.853 1171.21 504.405C1158.76 491.351 1147.18 477.463 1135.41 463.777C1133.54 461.613 1132.23 460.699 1129.39 462.083C1121.03 466.17 1111.96 467.689 1102.79 468.12C1081.23 469.141 1059.65 470.311 1038.08 470.472C1028.68 470.54 1019.02 469.195 1009.91 466.829C991.819 462.15 982.662 449.674 982.407 430.974C982.192 414.424 985.603 398.399 990.705 382.791C995.404 368.406 1000.68 354.195 1005.9 339.985C1009.85 329.257 1016.91 324.014 1028.29 324.834C1045.92 326.084 1063.51 328.02 1081.06 330.144C1108.54 333.465 1135.91 337.928 1163.65 338.775C1193.32 339.676 1222.93 339.286 1252.26 333.922C1253.69 333.666 1255.18 333.451 1256.61 333.545C1260.79 333.841 1263.83 336.463 1264.71 340.321C1265.54 343.924 1264.12 347.877 1260.58 349.678C1257.81 351.09 1254.67 352.165 1251.59 352.474C1230.49 354.625 1209.38 356.83 1188.23 358.47C1155.95 360.984 1123.62 360.46 1091.29 359.492C1073.48 358.954 1055.67 359.116 1037.86 359.102C1036.71 359.102 1034.84 360.03 1034.5 360.958C1027.45 380.72 1019.04 400.053 1015.28 420.877C1014.89 423.042 1014.6 425.22 1014.39 427.411C1013.64 435.088 1014.69 437.239 1022.34 438.704C1030.45 440.25 1038.77 441.541 1046.99 441.42C1069.05 441.084 1091.11 439.941 1113.16 439.107C1113.83 439.094 1114.52 438.879 1115.63 438.664Z" fill="white" fill-opacity="0.08"/>
<path d="M202.883 453.761C195.445 463.307 187.55 471.44 183.347 482.061C180.823 488.42 180.42 495.129 182.165 501.864C182.931 504.822 183.696 507.779 184.515 510.71C185.912 515.711 184.421 518.911 179.52 520.753C173.156 523.159 167.275 521.519 162.468 517.271C152.72 508.667 147.282 497.804 148.289 484.575C149.376 470.257 155.996 458.158 165.153 447.51C173.935 437.306 184.999 430.261 197.862 426.174C203.085 424.521 208.348 423.929 213.639 426C214.404 426.295 215.303 426.336 216.149 426.363C223.615 426.591 227.63 429.791 229.133 437.145C230.261 442.643 231.121 448.196 232.02 453.748C235.068 472.368 243.205 488.474 255.84 502.388C260.19 507.174 264.675 511.866 268.622 516.975C278.236 529.397 278.894 541.618 270.731 555.075C260.029 572.727 244.158 582.044 223.722 584.155C207.341 585.849 190.987 587.825 174.673 590.016C169.262 590.742 163.945 592.369 158.695 593.915C119.233 605.504 98.0984 633.561 88.5651 672.132C84.9935 686.584 85.6112 700.996 88.5786 715.354C90.5658 724.94 95.8561 732.859 102.556 739.849C104.96 742.35 107.605 743.802 111.324 743.224C114.399 742.753 115.191 744.246 113.634 747.163C110.814 752.446 106.101 754.665 100.368 754.813C92.3784 755.014 85.0741 752.527 78.9782 747.499C63.9667 735.131 54.2992 719.536 52.594 699.813C50.6873 677.953 56.3938 657.438 64.5441 637.447C77.8638 604.778 100.341 581.103 133.022 567.377C149.605 560.413 167.14 558.329 184.811 556.917C197.942 555.869 211.101 555.075 224.219 553.946C234.706 553.059 242.252 547.197 248.307 538.983C250.388 536.16 250.348 533.565 247.864 531.132C244.548 527.892 241.258 524.625 237.754 521.586C217.814 504.217 205.945 482.653 203.421 456.141C203.434 455.697 203.259 455.267 202.883 453.761Z" fill="white" fill-opacity="0.08"/>
<path d="M966.684 751.169C967.61 757.3 968.832 762.785 969.222 768.337C970.43 785.868 971.45 803.426 972.27 820.984C972.431 824.439 973.075 825.784 976.888 825.958C992.518 826.671 1007.48 830.744 1021.95 836.472C1030.8 839.967 1039.67 843.516 1048.13 847.832C1080.8 864.489 1115.5 875.715 1150.26 886.806C1154.68 888.217 1159.24 889.28 1163.44 891.189C1166.92 892.761 1170.51 894.805 1173.07 897.548C1180.09 905.049 1177.33 915.831 1167.81 919.676C1162.93 921.639 1157.97 921.411 1153.09 919.865C1118.01 908.666 1082.6 898.354 1049.29 882.208C1025.4 870.633 1000.88 860.832 974.794 855.212C966.858 853.505 959.232 850.305 951.578 847.455C945.563 845.224 942.099 840.411 941.401 834.186C940.541 826.429 940.488 818.591 939.883 810.807C938.527 793.41 937.131 776.014 935.546 758.644C935.211 754.907 933.506 751.277 933.304 747.54C933.049 742.874 933.291 738.102 934.069 733.504C934.687 729.874 938.178 728.489 941.414 727.642C949.658 725.505 958.037 724.9 966.415 726.674C994.411 732.603 1021.45 741.732 1048.31 751.465C1056.56 754.463 1064.67 757.851 1072.85 761.064C1074.06 761.535 1075.3 761.951 1076.83 762.503C1077.16 760.93 1077.38 759.76 1077.66 758.604C1079.04 753.173 1080.18 747.661 1081.94 742.337C1083.58 737.362 1086.72 733.235 1091.39 730.6C1097.3 727.266 1103.36 727.051 1109.02 730.99C1114.73 734.956 1116.64 740.75 1115.25 747.419C1113.84 754.221 1112.03 760.943 1110.37 767.692C1107.63 778.878 1108.81 789.66 1113.19 800.267C1115.85 806.68 1118.49 813.16 1120.3 819.841C1122.52 828.002 1120.28 834.105 1114.96 837.453C1109.75 840.733 1102.26 840.128 1096.35 834.791C1092.28 831.107 1088.64 826.577 1085.94 821.791C1080.91 812.904 1078.29 803.05 1076.97 792.913C1076.67 790.48 1075.63 789.391 1073.38 788.597C1039.18 776.632 1005 764.573 970.833 752.554C969.611 752.151 968.403 751.747 966.684 751.169Z" fill="white" fill-opacity="0.08"/>
<path d="M450.936 370.489C458.831 364.184 462.98 356.037 465.37 346.868C465.585 346.021 464.86 344.596 464.135 343.897C458.173 338.17 456.776 330.413 460.375 322.037C464.108 313.339 470.606 309.561 479.052 309.467C490.438 309.346 496.507 315.477 500.24 325.21C504.295 335.804 503.959 346.156 498.938 356.427C491.418 371.78 480.019 382.885 463.759 389.19C464.014 390.064 464.202 390.965 464.524 391.825C472.043 411.951 468.445 428.742 452.453 442.952C433.4 459.892 411.621 464.315 387.922 453.976C343.64 434.657 338.188 392.605 348.836 363.915C363.069 325.533 388.513 297.018 425.545 279.339C460.563 262.628 497.568 255.18 536.345 257.251C547.087 257.829 557.708 259.657 567.738 263.744C572.424 265.653 576.761 268.382 581.581 270.91C582.199 270.076 583.045 268.92 583.891 267.764C590.067 259.442 596.996 251.792 606.583 247.504C611.014 245.514 616.089 244.385 620.95 244.102C627.072 243.739 632.524 248.337 634.162 253.836C636.203 260.652 632.228 265.317 625.273 264.645C623.514 264.47 621.406 265.196 619.822 266.124C607.267 273.545 599.05 284.744 593.008 297.717C591.625 300.702 590.604 303.861 589.208 306.846C586.912 311.779 583.394 314.119 579.406 313.608C575.123 313.07 571.565 309.494 571.242 304.116C570.987 299.814 571.404 295.297 572.478 291.13C573.337 287.836 572.357 286.505 569.712 285.201C561.682 281.235 553.022 279.433 544.267 278.976C498.454 276.556 455.434 286.048 416.509 310.946C394.488 325.035 379.853 345.349 370.763 369.736C367.392 378.784 367.03 388.061 369.004 397.512C372.83 415.742 390.272 432.802 408.694 435.585C420.228 437.333 430.164 433.38 438.301 425.206C449.66 413.792 446.867 395.307 432.567 387.711C420.765 381.433 408.976 383.033 397.536 389.029C395.388 390.158 393.535 391.744 393.75 394.769C393.803 395.576 392.676 396.893 391.789 397.256C386.835 399.313 381.115 396.409 379.154 391.032C377.624 386.837 378.537 382.844 380.255 378.959C386.714 364.305 402.276 356.091 419.745 357.825C431.386 358.954 441.819 362.826 450.936 370.489Z" fill="white" fill-opacity="0.08"/>
<path d="M1320.18 987.165C1323.39 984.113 1326.42 981.532 1329.11 978.615C1332.67 974.756 1335.77 970.494 1339.38 966.69C1348.04 957.561 1359.98 959.228 1364.77 970.858C1367.36 977.136 1368.44 984.275 1368.96 991.118C1370.13 1006.22 1370.41 1021.37 1371.28 1036.48C1371.56 1041.33 1372.42 1046.17 1373.19 1051C1374.52 1059.36 1379.04 1065.61 1386.28 1069.86C1388.58 1071.2 1388.05 1072.72 1387.06 1074.44C1383.82 1080.13 1375.81 1083.22 1368.41 1081.31C1358.27 1078.71 1350.87 1072.55 1346.01 1063.28C1341.22 1054.14 1339.1 1044.22 1338.28 1034.07C1337.51 1024.59 1337.43 1015.05 1337.06 1005.54C1337.02 1004.45 1337.06 1003.38 1337.06 1001.55C1335.81 1002.49 1335.03 1003.1 1334.22 1003.66C1327.67 1008.33 1321.29 1013.26 1314.51 1017.56C1309.21 1020.92 1303.23 1021.62 1297.37 1018.75C1290.73 1015.49 1288.01 1009.64 1287.86 1002.6C1287.77 997.974 1288.16 993.322 1288.56 988.711C1290.28 968.68 1289.3 948.675 1288.2 928.67C1288.17 928.092 1287.97 927.528 1287.7 926.304C1286.48 927.447 1285.51 928.119 1284.81 929.006C1277.52 938.337 1269.8 947.357 1263.15 957.118C1253.86 970.763 1248.67 986.103 1247.19 1002.61C1246.93 1005.41 1246.96 1008.22 1246.99 1011.03C1247.08 1022.01 1251.54 1030.93 1260.95 1036.48C1267.71 1040.47 1275.17 1043.29 1282.41 1046.47C1287.87 1048.86 1293.59 1050.7 1298.94 1053.31C1301.82 1054.72 1304.47 1056.95 1306.67 1059.32C1310.43 1063.37 1311.61 1068.31 1309.6 1073.61C1307.58 1078.91 1303.38 1081.88 1297.92 1082.34C1293.59 1082.7 1289.1 1082.55 1284.83 1081.77C1269.68 1079.01 1255.42 1073.85 1242.56 1065.15C1223.33 1052.14 1213.5 1034.1 1213.14 1010.84C1212.91 996.885 1215.19 983.32 1219.65 970.158C1227.3 947.559 1239.41 927.716 1257.13 911.543C1264.4 904.888 1272.58 899.577 1282.21 896.929C1284.57 896.284 1284.97 895.047 1284.53 892.909C1283.97 890.167 1283.55 887.384 1283.12 884.601C1282.64 881.442 1281.97 878.981 1278.38 877.301C1273.33 874.935 1272.08 867.272 1274.97 861.719C1279.05 853.841 1288.84 851.475 1296.71 856.503C1301.64 859.649 1305.14 864.247 1306.83 869.611C1309.92 879.344 1313.05 889.199 1314.67 899.255C1318.84 924.987 1319.98 950.987 1319.55 977.042C1319.51 979.852 1319.44 982.661 1319.41 985.471C1319.43 985.713 1319.6 985.915 1320.18 987.165Z" fill="white" fill-opacity="0.08"/>
<path d="M1395.83 137.895C1377.78 146.459 1361.39 156.797 1346.17 169.448C1346.83 169.945 1347.09 170.282 1347.38 170.322C1357.92 171.774 1367.16 176.452 1375.89 182.139C1383.25 186.939 1390.32 192.155 1397.56 197.143C1413.56 208.167 1431.06 214.795 1450.73 213.759C1472.74 212.603 1492.52 205.585 1508.53 189.748C1513.13 185.204 1516.44 179.84 1518.3 173.629C1522.34 160.145 1516.2 146.808 1503.23 141.364C1491.59 136.47 1480.11 136.94 1469.13 143.34C1465.34 145.545 1461.77 148.153 1458.32 150.855C1456.97 151.904 1455.9 153.584 1455.31 155.211C1454.33 157.886 1452.72 158.195 1450.45 157.214C1445.7 155.17 1443.49 151.258 1442.84 146.365C1441.68 137.841 1444.96 130.823 1450.52 124.666C1472.91 99.8754 1509.3 100.064 1531.49 125.083C1552.29 148.529 1551.5 184.277 1529.51 206.621C1515.15 221.207 1497.28 228.682 1477.29 231.6C1442.58 236.668 1410.33 230.04 1380.53 211.42C1374.02 207.347 1367.32 203.569 1360.55 199.939C1351.11 194.871 1341.23 194.36 1331.15 197.909C1326.54 199.522 1322.02 201.391 1317.37 202.843C1314.38 203.771 1311.21 204.671 1308.12 204.685C1297.66 204.765 1291.27 194.803 1295.54 185.231C1296.61 182.811 1298.23 180.58 1299.89 178.496C1313.6 161.301 1330.69 148.301 1350.31 138.607C1362.54 132.571 1374.97 126.925 1387.65 120.942C1381.73 108.883 1373.9 98.0067 1360.07 94.0138C1351.14 91.4326 1341.66 90.7604 1332.41 89.3084C1331.62 89.1874 1330.5 89.2412 1329.95 89.7117C1326.52 92.6291 1324.09 90.5453 1321.82 88.1253C1317.84 83.9308 1317.17 77.4777 1320.08 71.7102C1323.29 65.3915 1328.77 61.9364 1335.36 60.1081C1343.99 57.715 1352.75 57.8091 1361.49 59.3149C1391.64 64.5311 1415.31 89.2143 1418.36 119.114C1418.94 124.827 1418 130.77 1417.19 136.537C1416.81 139.199 1415.39 141.888 1413.89 144.2C1409.27 151.285 1401.98 150.734 1398.22 143.165C1397.47 141.646 1396.81 140.086 1395.83 137.895Z" fill="white" fill-opacity="0.08"/>
<path d="M1420.12 417.422C1427.88 404.032 1435.67 391.233 1442.78 378.072C1447.88 368.648 1452.1 358.726 1456.73 349.033C1458.05 346.277 1459.5 343.588 1460.83 340.845C1466.17 329.808 1472.04 328.356 1485.12 333.048C1488.84 334.379 1492.18 337.417 1495.09 340.281C1507.18 352.152 1514.67 366.712 1518.51 383.073C1528.07 423.795 1520.61 461.909 1497.15 495.868C1460.63 548.73 1386.62 551.903 1343.19 503.504C1325.59 483.876 1315.41 460.873 1313.69 434.456C1313.28 428.178 1313.63 421.711 1314.73 415.513C1318.49 394.191 1334.14 380.33 1355.81 378.784C1377.12 377.265 1393.77 386.784 1407.84 401.693C1412.09 406.197 1415.51 411.467 1420.12 417.422ZM1476.07 357.341C1475.36 359.049 1474.82 360.245 1474.34 361.468C1467.58 378.354 1460.64 395.132 1451.33 410.862C1442.7 425.462 1434.55 440.344 1426.01 454.998C1422.82 460.47 1419.36 465.821 1415.55 470.876C1410.96 476.966 1402.62 476.105 1399.49 469.128C1398.11 466.063 1397.37 462.124 1397.96 458.884C1398.96 453.452 1400.75 448.021 1403.13 443.006C1407.16 434.483 1407.54 434.55 1401.13 427.304C1391.84 416.777 1380.64 409.141 1366.65 406.613C1353.16 404.18 1343.43 411.292 1341.02 424.722C1340.76 426.161 1340.56 427.613 1340.44 429.078C1337.66 460.389 1356.78 493.811 1386.19 509.03C1424.14 528.671 1470.58 512.216 1487.59 473.027C1494.38 457.378 1497.9 440.949 1498.14 423.929C1498.46 401.034 1493.64 379.551 1479.18 361.052C1478.31 359.909 1477.34 358.847 1476.07 357.341Z" fill="white" fill-opacity="0.08"/>
<path d="M1202.79 252.478C1201.21 253.325 1199.85 254.064 1198.48 254.79C1184.71 261.97 1170.87 268.947 1155.33 271.501C1134.71 274.889 1119.46 265.882 1112.34 246.186C1108.25 234.853 1107.71 223.278 1110.04 211.528C1113.58 193.768 1120.17 177.111 1128.67 161.207C1130.83 157.174 1133.72 153.396 1136.85 150.021C1141.85 144.63 1148.73 143.474 1154.54 146.365C1160.3 149.228 1163.18 155.439 1162.17 162.793C1161.99 164.097 1161.79 165.401 1161.58 166.934C1162.69 167.042 1163.53 167.284 1164.32 167.176C1180 164.944 1195.74 162.928 1211.35 160.306C1219.21 158.989 1226.55 155.829 1233.09 151.084C1238.58 147.104 1242.73 142.116 1244.54 135.448C1246.46 128.363 1244.97 122.515 1238.69 118.858C1232.88 115.47 1226.46 112.674 1219.95 111.047C1205.82 107.525 1191.41 107.727 1177.06 110.16C1175.56 110.415 1173.9 110.913 1172.72 111.814C1166.94 116.304 1158.11 115.914 1152.76 110.725C1147.52 105.656 1147.14 97.4824 1151.91 91.3922C1155.36 86.9826 1160.05 84.0384 1165.28 82.8822C1174.88 80.758 1184.62 78.7011 1194.39 77.9886C1208.69 76.9534 1222.63 79.817 1235.74 85.7189C1240.92 88.0581 1246.02 90.9082 1250.55 94.3365C1270.87 109.797 1275.06 133.956 1261.17 155.426C1258.35 159.782 1254.94 164.03 1250.95 167.297C1226.55 187.288 1198.3 195.798 1166.98 194.239C1162.8 194.024 1158.65 192.464 1154.56 191.321C1152.89 190.851 1151.88 190.797 1151.13 192.652C1146.18 204.819 1142.08 217.215 1141.95 230.511C1141.92 233.993 1142.58 237.542 1143.36 240.957C1144.15 244.412 1146.66 246.576 1150.23 246.428C1154.46 246.254 1159.01 246.321 1162.79 244.748C1171.19 241.266 1179.33 237.071 1187.3 232.675C1193.06 229.516 1198.23 225.294 1203.94 222.027C1217.17 214.458 1229.16 219.554 1232.9 234.342C1234.12 239.155 1234.45 244.21 1235.02 249.184C1235.45 252.814 1235.51 256.498 1235.94 260.128C1237.87 276.153 1248.79 287.002 1264.85 288.804C1268.71 289.234 1272.65 289.153 1276.51 289.57C1277.78 289.704 1278.94 290.74 1280.17 291.358C1279.49 292.434 1279.05 293.778 1278.13 294.544C1257.66 311.43 1234.38 309.521 1216.79 289.624C1208.44 280.173 1204.6 268.934 1203.59 256.552C1203.51 255.584 1203.46 254.602 1203.35 253.634C1203.38 253.446 1203.19 253.244 1202.79 252.478Z" fill="white" fill-opacity="0.08"/>
<path d="M88.6188 911.475C90.4718 911.085 91.8816 910.857 93.2512 910.494C118.91 903.732 144.999 899.349 171.289 896.055C174.378 895.665 177.654 895.773 180.729 896.324C185.63 897.198 189.215 900.048 190.477 905.103C191.739 910.158 190.034 914.554 185.979 917.391C182.662 919.716 178.755 921.612 174.834 922.593C164.321 925.242 153.593 927.084 143.052 929.665C125.047 934.088 107.135 938.888 89.1559 943.432C85.1412 944.44 81.0594 945.368 76.9507 945.784C63.1342 947.196 53.1847 937.745 53.9769 923.898C54.1917 920.039 54.8765 916.087 56.0715 912.416C62.2748 893.514 68.6662 874.679 75.0977 855.844C77.3132 849.378 79.7301 842.978 82.2409 836.619C83.0197 834.63 82.3349 833.662 81.0057 832.25C75.9168 826.845 70.9219 821.347 66.1821 815.647C64.5977 813.738 63.5639 811.21 62.8388 808.804C61.3081 803.722 62.4225 799.057 66.3835 795.414C70.3714 791.743 75.1649 791.058 80.012 793.101C82.872 794.298 85.8394 795.978 87.934 798.21C104.329 815.7 125.664 821.199 148.302 823.552C187.899 827.666 225.521 820.137 261.721 804.206C270.677 800.267 278.303 794.459 285.339 787.764C287.367 785.841 289.408 783.852 291.73 782.319C295.893 779.55 300.445 778.972 304.822 781.768C309.293 784.618 311.294 789.229 310.058 794.123C308.957 798.452 306.863 802.902 304.043 806.343C296.618 815.378 287.501 822.543 276.961 827.773C243.661 844.309 208.858 855.078 171.357 855.683C151.229 856.005 131.371 854.365 112.089 848.168C110.263 847.576 108.692 846.917 107.833 849.62C101.563 869.53 95.1981 889.414 88.8739 909.311C88.6994 909.754 88.7397 910.252 88.6188 911.475Z" fill="white" fill-opacity="0.08"/>
<path d="M647.508 490.289C649.106 487.855 649.885 486.484 650.838 485.247C656.518 477.786 661.62 469.733 668.092 463.024C681.882 448.733 697.202 446.636 714.684 455.899C726.433 462.124 737.671 469.356 750.601 473.054C756.348 474.694 762.135 476.159 767.882 477.813C774.757 479.802 778.046 483.446 777.644 488.393C777.268 493.031 772.944 497.347 766.445 497.616C759.826 497.885 753.072 497.212 746.533 496.043C730.837 493.233 715.879 488.084 701.727 480.623C692.14 475.581 688.206 476.549 681.989 485.409C677.921 491.203 674.376 497.347 670.469 503.249C668.32 506.502 666.199 509.836 663.58 512.7C658.398 518.36 651.872 520.04 644.568 517.647C634.108 514.233 626.387 507.443 621.043 497.871C620.104 496.177 619.244 494.43 618.076 492.184C617.042 493.421 616.223 494.389 615.431 495.384C600.017 514.622 584.616 533.888 569.148 553.086C567.093 555.64 564.784 558.046 562.3 560.198C549.705 571.101 534.318 567.188 528.531 551.607C527.309 548.313 526.302 544.831 525.845 541.349C522.18 513.332 519.629 485.22 522.676 456.988C525.348 432.278 533.875 409.706 550.457 390.844C554.74 385.977 560.299 382.199 565.482 378.193C567.147 376.916 569.43 376.217 571.538 375.8C578.708 374.361 584.025 380.303 581.366 387.093C579.648 391.475 576.989 395.522 574.465 399.542C566.194 412.65 559.762 426.524 556.204 441.689C553.156 454.649 552.418 467.784 553.156 480.999C553.841 493.193 554.875 505.359 555.774 517.54C555.855 518.602 556.11 519.637 556.392 521.398C557.802 520.134 558.822 519.368 559.682 518.427C572.249 504.633 584.817 490.853 597.331 477.006C600.352 473.659 603.011 469.961 606.126 466.708C614.558 457.875 626.696 457.969 634.645 467.313C637.747 470.943 639.627 475.635 641.99 479.883C643.708 482.975 645.346 486.202 647.508 490.289Z" fill="white" fill-opacity="0.08"/>
<path d="M833.474 563.128C843.557 560.345 852.929 557.226 862.557 555.331C867.78 554.296 873.446 555.048 878.857 555.6C881.247 555.842 883.718 557.267 885.759 558.705C889.505 561.34 891.425 565.118 890.633 569.796C889.827 574.529 886.699 577.204 882.241 578.495C880.213 579.086 878.414 579.503 876.669 577.339C876.037 576.559 873.688 576.68 872.318 577.056C861.644 580.068 851.036 583.281 840.375 586.346C836.656 587.408 832.869 588.255 829.096 589.116C828.465 589.263 827.364 589.156 827.082 588.753C824.652 585.203 820.986 581.963 822.289 577.056C823.041 574.22 821.698 573.131 819.724 571.867C804.256 562.039 787.244 558.288 769.131 558.867C751.461 559.418 734.65 563.679 718.524 570.832C690.891 583.093 667.635 601.067 649.012 624.863C639.774 636.667 633.625 649.976 631.624 665.061C629.825 678.747 633.141 690.671 642.661 700.835C646.327 704.747 649.858 708.807 653.094 713.056C656.236 717.183 657.471 721.875 654.665 726.742C651.845 731.622 647.079 732.98 642.017 732.092C637.425 731.286 632.564 730.143 628.603 727.817C611.201 717.6 602.407 701.427 598.795 682.108C595.814 666.15 598.419 650.743 604.34 635.806C613.605 612.468 628.294 592.907 647.549 577.15C681.868 549.066 721.411 534.358 765.908 534.439C775.321 534.452 784.881 536.092 794.092 538.19C810.916 542.048 820.933 548.931 833.474 563.128Z" fill="white" fill-opacity="0.08"/>
<path d="M1557.91 976.88C1591.42 971.785 1624.34 976.141 1658.07 977.633C1657.02 976.168 1656.39 975.079 1655.59 974.151C1637.21 953.246 1618.69 932.475 1597.25 914.554C1593.61 911.516 1590.1 908.249 1586.88 904.767C1585.2 902.952 1583.81 900.559 1583.12 898.193C1581.03 890.92 1587.34 884.466 1594.64 886.429C1597.41 887.169 1600.03 888.701 1602.5 890.22C1617.48 899.443 1630.28 911.301 1642.28 924.032C1650.66 932.905 1659.13 941.738 1666.88 951.149C1672.9 958.449 1678.53 966.246 1683.17 974.487C1690.71 987.904 1684.85 999.48 1669.59 1001.2C1661.19 1002.14 1652.54 1001.59 1644.05 1001.01C1614.46 999.023 1585.06 1000.6 1555.72 1004.62C1553.69 1004.9 1552.82 1005.68 1552.29 1007.63C1548.22 1022.83 1544.06 1038.02 1539.9 1053.2C1538.18 1059.47 1533.75 1063.46 1527.96 1064.05C1522.23 1064.63 1516.85 1061.58 1513.95 1055.98C1513.17 1054.48 1512.48 1052.88 1512 1051.25C1507.69 1036.65 1497.79 1027 1484.5 1020.57C1470.82 1013.96 1456.1 1011.93 1441.08 1012.06C1438.86 1012.08 1436.43 1012.83 1434.51 1013.96C1428.87 1017.25 1423.42 1015.65 1421.08 1009.51C1418.91 1003.8 1420.45 998.66 1424.16 994.129C1428.17 989.235 1433.57 986.466 1439.56 984.772C1446.78 982.729 1454.09 983.186 1461.32 984.503C1484.73 988.778 1505.45 998.35 1522.18 1015.69C1522.58 1016.11 1523.08 1016.46 1523.98 1017.23C1524.55 1015.42 1525.12 1014.01 1525.47 1012.55C1529.43 995.93 1533.33 979.287 1537.31 962.67C1537.85 960.425 1538.44 958.153 1539.31 956.029C1540.89 952.184 1543.86 949.939 1548.09 950.006C1552.44 950.06 1555.86 952.372 1556.91 956.459C1558.01 960.761 1558.07 965.332 1558.35 969.809C1558.5 971.973 1558.09 974.151 1557.91 976.88Z" fill="white" fill-opacity="0.08"/>
<path d="M1072.21 651.939C1072.38 663.192 1070.31 674.055 1065.9 684.393C1064.47 687.727 1062.58 690.927 1060.46 693.871C1057.61 697.824 1053.75 701.077 1048.9 701.655C1041.46 702.529 1033.73 703.242 1026.6 700.244C991.081 685.334 955.633 670.277 920.253 655.045C915.54 653.015 911.096 650.111 907.014 646.952C901.925 643.026 900.542 637.016 901.576 631.074C902.583 625.266 904.302 619.391 906.839 614.081C919.407 587.811 941.28 573.722 969.06 567.968C983.602 564.957 997.996 566.22 1011.91 571.356C1018.28 573.709 1024.51 576.586 1030.6 579.664C1056 592.517 1068.82 613.839 1071.72 641.695C1071.94 643.752 1072.07 645.836 1072.18 647.906C1072.26 649.25 1072.21 650.595 1072.21 651.939ZM1041.73 686.047C1042.16 684.487 1042.35 684.03 1042.4 683.56C1044.6 665.195 1042.73 647.194 1036.29 629.918C1034.56 625.28 1030.65 621.018 1026.8 617.684C1018.42 610.424 1008.62 605.168 997.862 602.519C991.712 601 984.998 600.234 978.741 600.919C955.486 603.487 940.313 618.8 926.121 635.753C926.859 636.089 927.369 636.385 927.933 636.559C955.781 644.881 982.904 655.193 1009.33 667.252C1017.8 671.11 1025.44 676.77 1033.5 681.556C1036.03 683.062 1038.67 684.393 1041.73 686.047Z" fill="white" fill-opacity="0.08"/>
<path d="M1691.34 761.508C1703.32 746.693 1714.85 732.428 1726.39 718.164C1726.83 718.366 1727.26 718.568 1727.7 718.769C1727.7 723.206 1727.34 727.669 1727.79 732.052C1728.81 742.189 1726.42 750.672 1719.8 758.927C1714.51 765.528 1710.88 773.782 1707.87 781.808C1703.58 793.249 1693.44 796.812 1684 788.947C1676.02 782.319 1668.45 775.221 1660.5 768.552C1650.14 759.841 1639.64 751.317 1629.11 742.794C1627.26 741.302 1625.05 740.239 1622.64 738.761C1622.56 739.89 1622.44 740.36 1622.5 740.804C1629.18 782.373 1649.51 815.122 1685.13 837.991C1697.1 845.681 1710.37 850.144 1724.15 853.155C1726.91 853.76 1727.85 854.836 1727.79 857.726C1727.57 865.9 1727.72 874.088 1727.7 882.262C1727.7 883.337 1727.6 884.399 1727.52 885.892C1723.19 885.085 1719.12 884.413 1715.1 883.579C1685.83 877.516 1661.64 862.647 1640.78 841.486C1609.2 809.462 1591.33 771.147 1586.63 726.527C1586.3 723.502 1586.09 720.423 1586.3 717.398C1587.1 706.508 1596.29 699.477 1606.98 701.615C1609.81 702.18 1612.59 703.282 1615.27 704.438C1629.49 710.542 1642.58 718.541 1654.26 728.718C1661.8 735.292 1669.11 742.135 1676.59 748.776C1681.58 753.213 1686.71 757.515 1691.34 761.508Z" fill="white" fill-opacity="0.08"/>
<path d="M1646.75 552.481C1647.75 545.073 1648.63 538.512 1649.61 531.199C1643.52 532.543 1638.19 532.288 1635 527.233C1633.5 524.853 1632.64 521.452 1632.92 518.669C1633.7 510.979 1639.88 508.183 1650.82 510.28C1651.16 506.018 1651.49 501.783 1651.83 497.562C1653.69 474.075 1655.63 450.589 1657.35 427.089C1657.67 422.612 1657.11 418.081 1656.92 413.577C1656.77 410.068 1654.86 408.522 1651.43 408.872C1638.33 410.189 1625.22 411.399 1612.15 412.919C1604.89 413.766 1597.68 415.07 1590.45 416.293C1588.18 416.669 1586 417.463 1583.74 417.987C1581.97 418.404 1580.18 418.955 1578.38 419.036C1572.38 419.278 1567.69 415.997 1566.42 410.862C1565.14 405.713 1567.64 400.402 1573.21 398.117C1577.68 396.275 1582.46 394.998 1587.22 394.016C1605.96 390.185 1624.72 386.34 1643.57 383.019C1648.87 382.091 1654.57 382.347 1659.94 383.113C1671.54 384.753 1678.7 391.892 1681.73 403.078C1684.56 413.55 1683.78 424.225 1682.31 434.752C1677.17 471.373 1671.85 507.981 1666.36 544.549C1665.5 550.289 1663.93 556.057 1661.79 561.461C1658.29 570.334 1651.16 573.978 1641.77 572.136C1636.28 571.06 1630.83 569.581 1625.51 567.847C1606.2 561.528 1586.4 559.834 1566.24 561.044C1550.79 561.972 1535.35 563.276 1519.84 561.3C1514.51 560.628 1509.98 559.162 1507.74 553.946C1505.35 548.407 1506.48 542.976 1510.72 539.117C1514.32 535.85 1518.77 532.866 1523.34 531.521C1529.82 529.639 1536.74 528.698 1543.5 528.577C1563.09 528.214 1582.46 530.486 1601.57 534.842C1614.11 537.706 1626.17 541.94 1637.58 547.95C1640.24 549.362 1642.99 550.639 1646.75 552.481Z" fill="white" fill-opacity="0.08"/>
<path d="M156.265 687.015C156.332 677.496 157.258 668.18 160.615 659.253C169.987 634.328 194.921 622.604 220.057 631.356C234.276 636.304 245.34 645.54 253.786 657.774C267.817 678.142 273.443 700.485 267.105 724.859C261.036 748.185 242.346 762.758 220.258 762.059C208.281 761.683 197.553 757.542 188.127 750.322C167.315 734.405 156.882 713.15 156.265 687.015ZM240.627 705.473C239.298 691.801 234.585 680.01 225.803 669.874C221.587 665.007 216.539 661.202 210.255 659.36C202.373 657.048 196.049 659.266 191.457 666.055C188.315 670.707 186.288 675.883 186.569 681.516C187.429 698.765 193.968 713.446 207.261 724.738C209.624 726.742 212.551 728.288 215.451 729.444C224.488 733.033 232.504 730.089 236.397 721.189C238.559 716.269 239.271 710.73 240.627 705.473Z" fill="white" fill-opacity="0.08"/>
<path d="M621.809 1153.27C598.002 1153.28 577.754 1139.7 569.497 1118.27C564.663 1105.73 561.978 1092.73 563.656 1079.18C563.978 1076.53 564.596 1073.87 565.536 1071.36C567.738 1065.5 571.927 1061.79 578.332 1061.46C584.562 1061.13 589.503 1064.09 591.866 1069.67C594.122 1074.99 595.317 1080.8 596.687 1086.48C598.11 1092.39 598.741 1098.54 600.486 1104.34C603.4 1113.98 610.516 1119.01 620.399 1119.28C635.545 1119.68 649.415 1115.74 660.801 1105.19C666.172 1100.22 671.22 1094.89 676.551 1089.88C684.339 1082.54 692.905 1076.35 703.15 1072.79C719.155 1067.22 729.883 1071.02 738.45 1085.64C742.639 1092.79 747.285 1099.49 754.267 1104.09C758.295 1106.75 762.645 1109.03 767.063 1110.98C772.85 1113.54 778.892 1115.53 784.773 1117.88C788.694 1119.45 788.989 1120.78 786.156 1124.04C780.114 1131 772.326 1134.52 763.223 1134.4C740.947 1134.12 722.874 1125.87 711.502 1105.77C710.226 1103.51 708.977 1103.42 707.218 1104.83C703.419 1107.88 699.498 1110.8 695.926 1114.1C691.549 1118.16 687.521 1122.61 683.264 1126.81C667.112 1142.81 647.105 1150.31 625.004 1153.09C623.688 1153.25 622.332 1153.24 621.809 1153.27Z" fill="white" fill-opacity="0.08"/>
<path d="M18.5966 276.435C18.2743 254.952 34.7091 235.687 57.4277 230.9C68.1426 228.642 78.75 229.005 89.2231 232.258C107.511 237.918 123.476 247.235 134.875 262.937C141.508 272.079 147.51 281.746 153.096 291.573C159.662 303.122 165.476 315.1 171.639 326.864C174.136 331.636 176.607 336.678 172.619 341.544C168.658 346.371 162.844 346.828 157.164 345.631C145.442 343.158 134.311 338.936 123.664 333.397C117.608 330.252 111.579 326.998 105.309 324.336C93.9091 319.469 82.2276 318.434 70.4252 323.046C69.3107 323.476 68.1023 323.906 67.1892 324.645C62.3421 328.558 56.9444 328.934 51.7481 326.151C36.6157 318.058 19.0262 300.513 18.5966 276.435ZM139.588 313.191C134.311 298.577 125.261 284.26 116.4 274.593C105.806 263.032 92.5262 256.417 77.273 254.347C71.459 253.554 65.0812 254.602 59.3478 256.215C51.211 258.501 46.0281 264.524 43.7455 272.765C40.7513 283.587 47.3306 300.648 56.7832 306.819C56.9578 306.926 57.2398 306.859 56.461 306.805C60.6771 303.511 64.007 300.245 67.9412 297.986C76.6553 292.971 86.2423 291.345 96.1918 292.81C110.371 294.894 122.898 300.97 134.405 309.333C136.137 310.596 137.856 311.9 139.588 313.191Z" fill="white" fill-opacity="0.08"/>
<path d="M1640.93 1168.15C1624.54 1168.32 1608.83 1165.69 1594.17 1158.04C1585.86 1153.71 1578.38 1148.32 1572.49 1140.95C1561.69 1127.45 1559.4 1112.41 1564.77 1096.13C1567.84 1086.8 1573.32 1078.89 1580.06 1071.85C1599.09 1051.98 1622.89 1041.76 1649.63 1037.53C1650.82 1037.34 1652.06 1037.27 1653.26 1037.32C1660.05 1037.57 1665.03 1041.12 1666.6 1046.78C1668.2 1052.56 1665.63 1058.43 1659.74 1061.93C1657.23 1063.41 1654.42 1064.36 1651.84 1065.75C1640.46 1071.84 1628.8 1077.5 1617.86 1084.31C1611.67 1088.17 1606 1093.41 1601.32 1099.05C1592.4 1109.75 1594.35 1118.88 1606.28 1126C1616.38 1132.02 1627.66 1134.97 1639.01 1137.25C1648.42 1139.15 1658.07 1139.81 1667.62 1141.04C1668.83 1141.21 1670.04 1141.41 1671.2 1141.72C1676.39 1143.12 1679.8 1147.12 1680.12 1152.1C1680.43 1156.94 1677.82 1161.55 1672.92 1163.32C1668.6 1164.89 1664.05 1166.08 1659.51 1166.7C1653.37 1167.54 1647.13 1167.69 1640.93 1168.15Z" fill="white" fill-opacity="0.08"/>
<path d="M1200.38 1201.89C1190.67 1201.89 1180.46 1201.96 1170.25 1201.77C1169.31 1201.76 1167.93 1200.24 1167.54 1199.14C1164.06 1189.24 1162.75 1178.96 1162.67 1168.52C1162.61 1162.66 1163.03 1156.81 1163.2 1150.95C1163.24 1149.51 1163.2 1148.06 1163.2 1146.06C1160.57 1146.83 1158.25 1147.39 1156.01 1148.17C1139.21 1154.03 1122.08 1158.27 1104.15 1158.15C1098.82 1158.11 1093.35 1157.89 1088.19 1156.72C1071.64 1152.97 1060.74 1140.43 1059.33 1123.5C1057.79 1105 1062.42 1087.66 1070.37 1071.1C1070.84 1070.11 1071.5 1069.2 1072.18 1068.35C1075.07 1064.76 1078.68 1062.79 1083.39 1063.92C1088.06 1065.05 1090.98 1068.33 1091.42 1072.87C1091.9 1077.67 1091.6 1082.6 1091.09 1087.42C1090.13 1096.52 1088.24 1105.54 1087.72 1114.64C1086.98 1127.61 1091.02 1131.65 1103.96 1131.93C1117 1132.21 1129.7 1130.55 1141.88 1125.32C1148.7 1122.38 1155.75 1119.82 1162.93 1118C1178.24 1114.14 1189.06 1121.17 1191.61 1136.77C1192.85 1144.31 1192.65 1152.08 1193.19 1159.75C1193.82 1168.62 1194.13 1177.55 1195.41 1186.32C1196.19 1191.53 1198.6 1196.46 1200.38 1201.89Z" fill="white" fill-opacity="0.08"/>
<path d="M1618.72 50.6838C1614.94 53.8297 1611.28 57.2579 1607.25 60.1618C1599.74 65.5663 1592.49 71.5892 1584.3 75.6897C1564.73 85.4634 1549.38 78.607 1542.34 57.8629C1541.14 54.3003 1540.29 50.6301 1539.11 46.4087C1536.6 48.1295 1534.21 49.5545 1532.07 51.2754C1517.3 63.2271 1500.4 70.4196 1481.77 73.5655C1477.77 74.2377 1473.44 74.2108 1469.43 73.5117C1456.97 71.2935 1450.11 62.9448 1449.9 50.294C1449.82 45.8978 1449.95 41.5016 1450.15 37.1054C1450.39 32.0639 1453.54 28.1517 1457.89 27.1434C1462.51 26.0813 1467.58 28.0576 1469.41 32.7899C1471.03 37.0113 1471.6 41.7301 1472.13 46.2877C1472.74 51.3695 1473.36 52.2702 1478.51 51.598C1490.34 50.052 1501.19 45.965 1510.68 38.5574C1515.97 34.4301 1521.08 29.9801 1526.73 26.4309C1531.31 23.5673 1536.42 21.0936 1541.62 19.7627C1550.05 17.5847 1557.68 22.0481 1560.38 30.3565C1561.71 34.4569 1561.79 38.9741 1562.44 43.2896C1563.12 47.7396 1563.59 52.2299 1564.54 56.6126C1565.25 59.8795 1567.71 61.4256 1570.92 60.1081C1575.4 58.2797 1580.14 56.5992 1583.99 53.8028C1593.66 46.7851 1602.89 39.1489 1612.33 31.795C1615.31 29.4692 1618.26 27.0628 1621.46 25.073C1629.23 20.2332 1638.17 23.6749 1639.84 32.6823C1640.79 37.8179 1640.31 43.3972 1639.53 48.6269C1638.7 54.2331 1639.33 58.4679 1644.97 61.0492C1647.69 62.2994 1646.77 64.0203 1644.87 65.4857C1637.78 70.9574 1628.67 69.6533 1623.83 62.0843C1621.75 58.7771 1620.56 54.8649 1618.72 50.6838Z" fill="white" fill-opacity="0.08"/>
<path d="M931.223 381.003C922.898 378.677 914.546 376.445 906.262 373.985C899.011 371.834 891.814 369.535 884.671 367.088C882.294 366.268 879.918 365.058 877.931 363.525C875.097 361.334 874.117 358.188 875.272 354.666C876.413 351.184 878.964 349.221 882.549 348.871C884.201 348.71 885.987 348.898 887.598 349.342C907.228 354.733 926.832 360.164 946.422 365.69C948.866 366.376 951.296 367.37 953.458 368.661C959.581 372.304 960.923 379.349 956.627 385.036C955.244 386.864 953.471 388.41 951.739 389.943C940.434 399.932 927.879 408.092 914.654 415.258C912.546 416.401 910.558 417.785 908.034 419.358C914.036 422.854 919.863 424.991 926.214 425.65C927.785 425.811 929.383 425.906 930.941 426.188C939.118 427.667 943.683 432.735 943.831 441.003C943.911 445.13 943.321 449.271 943.039 453.412C941.857 470.58 940.702 487.734 939.494 504.902C939.266 508.062 939.145 511.261 938.514 514.354C936.983 521.869 929.773 524.786 923.341 520.618C919.219 517.943 916.909 513.95 915.97 509.245C915.338 506.153 914.989 502.953 914.949 499.807C914.721 483.54 915.54 467.326 918.588 451.328C919.273 447.765 918.198 446.515 915.016 445.251C908.007 442.468 901.065 439.403 894.379 435.921C887.665 432.426 882.106 427.519 882.187 419.076C882.254 410.808 887.773 406.102 894.339 402.567C899.911 399.569 905.886 397.297 911.445 394.285C918.36 390.548 925.033 386.394 931.813 382.414C931.625 381.93 931.424 381.473 931.223 381.003Z" fill="white" fill-opacity="0.08"/>
<path d="M1237.11 420.407C1237.54 407.823 1242.14 395.159 1251.94 385.063C1260.94 375.813 1270.86 367.465 1280.35 358.699C1292.36 347.621 1304.51 336.691 1316.3 325.398C1322.5 319.456 1326.33 311.927 1328.11 303.458C1328.29 302.624 1328.54 301.804 1328.81 300.997C1329.71 298.295 1331.32 295.633 1334.22 295.781C1336.73 295.916 1339.86 297.005 1341.5 298.793C1345.53 303.189 1346.64 309.023 1345.18 314.603C1343.53 320.895 1341.73 327.617 1338.08 332.806C1330.73 343.238 1322.54 353.187 1313.84 362.531C1302.36 374.845 1290.02 386.34 1278.13 398.265C1270.43 405.982 1265.58 415.177 1265.52 426.255C1265.49 430.92 1266.46 435.639 1267.44 440.223C1268.35 444.499 1270.06 448.599 1271.08 452.861C1271.96 456.585 1271.13 457.432 1267.22 457.539C1261.65 457.701 1256.64 456.047 1252.2 452.699C1242.8 445.574 1236.98 433.757 1237.11 420.407Z" fill="white" fill-opacity="0.08"/>
<path d="M1598.75 599.36C1624.52 599.387 1645.85 617.993 1647.36 639.046C1649.22 665.02 1625.3 684.285 1599.44 677.59C1591.97 675.654 1585.42 672.038 1579.91 666.58C1578.96 665.639 1578.01 664.684 1576.95 663.877C1556.82 648.565 1558.34 619.042 1579.99 605.611C1586.68 601.457 1594 599.387 1598.75 599.36ZM1606.36 648.982C1607.8 648.753 1610 648.605 1612.1 648.027C1621.34 645.473 1623.58 636.963 1616.92 630.066C1612.04 625.024 1602.36 623.559 1596.23 626.96C1593.11 628.681 1591.34 631.276 1591.29 634.919C1591.15 643.08 1595.42 647.946 1603.44 648.78C1604.15 648.834 1604.87 648.874 1606.36 648.982Z" fill="white" fill-opacity="0.08"/>
<path d="M1575.03 222.404C1578.68 219.54 1581.77 216.986 1585 214.66C1587.47 212.886 1590.01 211.138 1592.75 209.847C1597.82 207.454 1603.21 208.691 1606.39 212.563C1609.61 216.489 1609.72 221.866 1606.32 226.464C1601.4 233.146 1595.09 238.281 1587.86 242.328C1579.89 246.805 1579.67 247.584 1585.83 254.414C1593.98 263.448 1603.28 271.098 1614.27 276.502C1619.97 279.299 1625.71 281.974 1631.3 284.972C1633.72 286.276 1636.12 287.957 1637.93 290C1641.72 294.302 1640.31 298.779 1634.75 300.258C1632.35 300.89 1629.67 300.93 1627.16 300.742C1602.7 298.833 1582.89 287.527 1566.04 270.278C1565.36 269.579 1564.71 268.853 1564.03 268.154C1563.87 267.992 1563.61 267.912 1563.26 267.71C1560.63 270.318 1558.15 273.182 1555.27 275.548C1552.2 278.062 1548.98 280.589 1545.42 282.257C1541.51 284.085 1537.43 283.305 1534.45 279.823C1531.56 276.449 1531.55 272.496 1533.66 268.88C1535.47 265.761 1538.02 263.059 1540.29 260.208C1543.47 256.216 1546.91 252.424 1549.78 248.216C1550.76 246.778 1550.88 244.25 1550.47 242.435C1548.47 233.872 1547.94 225.294 1549.72 216.663C1550.13 214.66 1550.8 212.644 1551.74 210.815C1554.19 206.002 1558.83 203.502 1563.71 204.107C1568.74 204.738 1572.7 208.422 1573.84 213.813C1574.37 216.394 1574.57 219.056 1575.03 222.404Z" fill="white" fill-opacity="0.08"/>
<path d="M271.053 374.348C269.012 374.926 267.656 375.316 266.3 375.706C259.868 377.574 253.504 379.793 246.965 381.218C239.15 382.925 232.906 379.551 230.906 373.272C228.959 367.115 231.94 361.119 239.11 357.624C245.246 354.639 251.557 352.004 257.827 349.288C267.119 345.255 276.397 341.222 285.755 337.35C288.32 336.288 291.086 335.441 293.825 335.199C304.943 334.177 313.711 343.507 312.126 354.572C311.804 356.844 310.904 359.022 310.287 361.253C307.924 369.938 305.238 378.569 303.318 387.348C301.398 396.167 300.284 405.148 298.726 414.048C298.39 415.957 297.84 417.866 297.128 419.668C294 427.559 286.695 429.925 280.143 424.494C276.826 421.751 274.141 417.718 272.382 413.739C268.139 404.099 267.669 393.882 269.589 383.557C270.126 380.72 270.502 377.87 271.053 374.348Z" fill="white" fill-opacity="0.08"/>
<path d="M601.856 807.002C600.809 811.13 599.721 818.053 597.264 824.466C593.545 834.199 587.838 836.539 577.795 833.729C572.276 832.183 568.087 828.687 564.569 824.372C555.063 812.676 550.162 799.043 548.269 784.228C547.127 775.315 546.953 766.361 549.799 757.77C551.223 753.482 553.572 749.287 556.365 745.738C559.628 741.597 564.462 740.898 569.846 740.858C578.372 740.791 582.575 745.94 586.267 752.178C595.76 768.216 601.131 785.505 601.856 807.002Z" fill="white" fill-opacity="0.08"/>
<path d="M214.887 1201.89C213.706 1201.89 212.524 1201.89 211.343 1201.89C177.694 1201.89 144.046 1201.95 110.398 1201.78C108.088 1201.77 105.268 1200.83 103.55 1199.34C84.4028 1182.61 70.8011 1162.56 67.7934 1136.68C67.0818 1130.57 67.6726 1124.27 68.0888 1118.08C68.2499 1115.62 69.2436 1113.07 70.3983 1110.84C72.5063 1106.75 76.0377 1104.41 80.7237 1104.45C85.5709 1104.49 89.3708 1106.86 91.076 1111.29C93.1169 1116.62 94.4462 1122.22 96.0038 1127.74C104.302 1157.19 120.562 1180.11 150.115 1191C160.293 1194.74 171.343 1196.35 182.152 1198.02C191.269 1199.43 200.601 1199.47 209.839 1200.2C211.584 1200.33 213.289 1200.84 215.008 1201.18C214.954 1201.41 214.928 1201.65 214.887 1201.89Z" fill="white" fill-opacity="0.08"/>
<path d="M763.599 299.398C761.76 299.075 759.262 298.954 756.993 298.174C741.901 292.944 726.755 287.876 711.851 282.122C702.009 278.317 693.201 272.523 685.843 264.779C679.465 258.071 674.926 250.367 673.946 240.983C673.691 238.483 673.852 235.821 674.443 233.374C675.638 228.386 678.78 224.891 683.855 223.627C688.783 222.404 693.053 223.936 696.477 227.593C697.967 229.193 699.283 230.981 700.465 232.823C705.231 240.311 711.556 246.092 719.276 250.367C733.213 258.071 747.715 264.363 763.183 268.342C766.701 269.243 770.245 270.426 773.414 272.147C779.685 275.535 782.652 281.45 781.578 287.19C780.437 293.24 775.187 297.905 768.191 298.994C766.889 299.196 765.533 299.236 763.599 299.398Z" fill="white" fill-opacity="0.08"/>
<path d="M1469.54 292.756C1452.96 292.192 1437.73 286.666 1423.46 278.223C1418.21 275.118 1413.27 271.474 1407.9 268.611C1403.43 266.231 1398.66 264.121 1393.79 262.803C1386.68 260.894 1382.99 262.749 1378.87 268.651C1377.67 270.359 1376.05 271.757 1374.61 273.289C1372.79 271.259 1370.32 269.525 1369.27 267.145C1365.98 259.657 1370.34 248.526 1377.9 243.955C1383.9 240.325 1390.58 239.653 1397 241.521C1404.42 243.672 1411.66 246.697 1418.67 250.004C1424.04 252.545 1428.82 256.296 1434.01 259.24C1447.04 266.621 1460.85 271.353 1476.05 271.327C1479.88 271.327 1482.89 270.09 1485.39 267.226C1487.06 265.304 1488.81 263.408 1490.72 261.687C1494.06 258.662 1498.05 258.192 1501.11 260.222C1504.36 262.373 1505.66 266.352 1503.78 270.668C1498.45 282.875 1489.94 291.224 1475.92 292.353C1473.87 292.541 1471.8 292.622 1469.54 292.756Z" fill="white" fill-opacity="0.08"/>
<path d="M106.544 400.133C107.578 401.881 108.196 402.889 108.773 403.911C112.546 410.512 111.928 418.39 107.215 423.741C102.516 429.078 94.943 430.49 87.7461 427.344C76.5345 422.464 70.0895 408.522 72.7615 394.917C75.2052 382.481 84.725 373.622 98.2864 371.578C113.768 369.239 127.423 373.998 139.897 382.898C140.394 383.248 140.823 383.691 141.266 384.122C146.127 388.854 147.322 394.944 144.328 399.663C141.401 404.288 135.802 405.484 129.276 403.199C122.2 400.725 114.829 400.066 106.544 400.133Z" fill="white" fill-opacity="0.08"/>
<path d="M843.436 408.294C843.41 427.801 826.304 441.312 806.499 437.387C800.456 436.19 794.763 434.066 790.024 429.952C784.384 425.085 782.679 419.13 783.646 411.601C784.962 401.505 789.258 393.586 797.449 387.711C802.726 383.933 808.607 381.823 815.105 381.366C831.312 380.277 843.463 391.798 843.436 408.294ZM805.223 414.505C811.292 417.073 817.818 415.271 820.087 410.364C820.772 408.899 820.96 406.573 820.235 405.282C819.724 404.382 817.2 404.099 815.723 404.355C809.99 405.35 807.72 409.988 805.223 414.505Z" fill="white" fill-opacity="0.08"/>
<path d="M645.078 379.766C646.085 358.349 654.316 343.413 670.025 332.792C672.953 330.816 676.632 329.405 680.123 328.947C687.507 328.006 692.892 334.164 691.187 341.437C690.367 344.932 688.676 348.293 686.984 351.506C684.043 357.126 680.566 362.477 677.746 368.15C671.113 381.5 672.281 394.581 679.814 407.232C680.942 409.114 682.284 410.875 683.305 412.811C684.755 415.567 683.909 416.979 680.888 417.194C665.836 418.283 653.389 410.378 648.636 396.006C646.662 390.064 645.91 383.705 645.078 379.766Z" fill="white" fill-opacity="0.08"/>
<path d="M1156.88 545.288C1156.54 566.691 1149.68 582.501 1136.29 595.434C1132.54 599.064 1128.28 601.834 1122.77 601.914C1115.6 602.008 1110.47 597.142 1111.08 589.989C1111.36 586.601 1112.8 583.173 1114.29 580.041C1115.86 576.76 1118.19 573.857 1120.07 570.724C1126.1 560.708 1128.33 549.967 1126.18 538.378C1125.7 535.743 1125.26 533.054 1125.24 530.392C1125.24 524.813 1127.66 520.417 1132.8 518.01C1138.05 515.55 1143.48 516.088 1147.41 520.161C1150.5 523.361 1153.01 527.596 1154.42 531.831C1156.14 536.966 1156.42 542.572 1156.88 545.288Z" fill="white" fill-opacity="0.08"/>
<path d="M275.484 887.491C275.484 891.498 275.94 895.571 275.376 899.497C274.598 904.982 270.999 907.698 265.601 908.908C261.614 909.808 257.72 911.287 253.906 912.833C248.039 915.213 242.426 918.238 236.465 920.322C226.327 923.844 219.882 918.103 221.426 907.456C222.366 900.949 223.172 894.415 223.897 887.868C225.025 877.744 229.227 873.51 239.244 871.91C242.91 871.318 246.454 869.947 249.999 868.777C254.269 867.366 258.404 865.51 262.728 864.341C271.026 862.082 276.571 867.258 275.699 875.822C275.309 879.68 275.631 883.606 275.631 887.491C275.591 887.491 275.537 887.491 275.484 887.491Z" fill="white" fill-opacity="0.08"/>
<path d="M1267.73 689.999C1244.68 690.308 1231.95 674.108 1224.93 653.553C1223.49 649.345 1222.94 644.733 1222.62 640.27C1222.17 634.153 1227.33 630.98 1232.55 634.234C1234.76 635.605 1236.56 638.105 1237.8 640.472C1239.9 644.438 1241.24 648.793 1243.21 652.84C1246.53 659.656 1251.15 661.39 1258.24 658.648C1262.67 656.927 1267.01 654.978 1271.43 653.243C1279.99 649.882 1287.03 651.549 1291.71 657.962C1296.64 664.711 1296.41 673.181 1290.93 679.97C1284.97 687.351 1277.12 690.497 1267.73 689.999Z" fill="white" fill-opacity="0.08"/>
<path d="M545.355 674.189C539.34 674.149 533.029 670.868 528.209 664.496C520.622 654.48 517.386 643.483 521.052 631.155C523.16 624.056 525.845 617.119 528.423 610.155C529.095 608.354 530.223 606.687 531.337 605.1C535.929 598.513 543.327 596.483 549.504 600.032C555.68 603.581 557.278 610.854 554.056 618.343C551.276 624.809 548.604 631.383 546.657 638.132C544.764 644.747 547.356 648.982 553.693 651.684C559.601 654.198 562.622 659.495 561.36 665.061C560.017 670.949 554.767 674.377 545.355 674.189Z" fill="white" fill-opacity="0.08"/>
<path d="M1069.62 161.032C1060.85 161.032 1052.09 160.978 1043.33 161.046C1034.81 161.113 1030.09 155.574 1032.73 147.427C1035.03 140.396 1038.33 133.674 1041.49 126.952C1043.06 123.591 1046.02 122.394 1049.9 122.3C1056.83 122.139 1063.75 121.171 1070.69 120.915C1074.81 120.767 1079.01 120.982 1083.07 121.695C1089.8 122.865 1092.62 127.153 1091.31 133.889C1089.68 142.331 1087 150.398 1081.9 157.483C1078.73 161.839 1074.15 161.503 1069.62 161.032Z" fill="white" fill-opacity="0.08"/>
<path d="M1063.37 507.161C1067.88 508.438 1072.27 508.963 1075.98 510.845C1092.59 519.261 1102.49 533.041 1106.51 551.096C1107.47 555.398 1106.81 559.646 1104.38 563.424C1102.54 566.288 1099.87 567.941 1096.42 567.753C1093.14 567.565 1091.48 565.427 1089.98 562.591C1083.62 550.424 1074.56 540.61 1062.71 533.686C1059.51 531.817 1055.37 531.212 1051.57 530.769C1045.27 530.043 1041.32 525.283 1043.61 519.395C1044.83 516.236 1047.46 512.928 1050.36 511.302C1054.26 509.097 1059.02 508.465 1063.37 507.161Z" fill="white" fill-opacity="0.08"/>
<path d="M1483.49 752.42C1483.28 772.048 1469.58 787.118 1450.07 789.149C1448.99 789.256 1447.87 789.31 1446.78 789.243C1441.43 788.947 1437.4 786.285 1436.14 782.292C1434.87 778.272 1436.59 773.903 1441.06 770.623C1443.91 768.539 1447.07 766.872 1449.97 764.855C1455.54 760.997 1458.59 755.673 1458.89 748.843C1459.07 744.918 1458.46 741.53 1454.72 739.002C1451.42 736.784 1450.72 732.375 1452.26 728.758C1453.95 724.779 1458.34 722.372 1463.08 722.91C1469.19 723.609 1473.7 726.984 1477.26 731.756C1481.81 737.86 1483.52 744.891 1483.49 752.42Z" fill="white" fill-opacity="0.08"/>
<path d="M41.3823 44.3248C41.8388 48.4387 42.8458 52.4584 42.6041 56.411C42.2013 62.9179 41.3017 69.4248 40.0261 75.8107C39.3011 79.454 36.2934 81.4975 32.4667 81.6319C28.6534 81.7663 25.874 79.8842 24.4239 76.4022C23.7794 74.8696 23.3228 73.0546 23.4571 71.4279C24.3164 61.2777 21.4699 51.8535 18.14 42.483C17.6566 41.1117 17.1464 39.7135 16.8913 38.275C15.9648 33.0991 18.5428 28.9852 23.6317 27.8022C26.5856 27.1165 29.6336 26.6998 32.6681 26.4578C41.8925 25.7318 51.1169 25.0193 60.3548 24.5487C64.5977 24.3336 68.8944 24.4412 73.1239 24.8311C78.817 25.3554 82.3483 29.0659 82.2946 33.8923C82.2409 38.7725 78.6425 42.3755 72.936 42.7384C62.5031 43.4106 52.0434 43.814 41.3823 44.3248Z" fill="white" fill-opacity="0.08"/>
<path d="M1436.65 1047.73C1450.13 1047.95 1468.02 1061.08 1472.24 1073.97C1474.23 1080.06 1473.89 1085.91 1469.05 1090.62C1464.09 1095.42 1458.03 1095.9 1452.06 1093.2C1448.13 1091.42 1444.76 1088.44 1441.02 1086.15C1437.01 1083.69 1432.91 1081.37 1428.8 1079.05C1426.79 1077.93 1424.51 1077.21 1422.65 1075.9C1414.24 1069.89 1414.1 1058.53 1422.24 1052.13C1426.02 1049.17 1431.02 1047.64 1436.65 1047.73Z" fill="white" fill-opacity="0.08"/>
<path d="M1200.22 850.184C1203.75 850.467 1207.31 850.494 1210.77 851.099C1213.66 851.609 1214.63 850.52 1215.23 847.939C1215.96 844.86 1216.96 841.836 1218.16 838.905C1220.43 833.312 1224.36 830.61 1229.2 830.973C1233.83 831.322 1237.39 834.522 1238.64 840.276C1239.58 844.538 1239.88 848.948 1240.37 853.303C1240.8 857.189 1240.95 861.101 1241.43 864.973C1242.74 875.54 1233.86 883.458 1223.41 880.702C1216.94 878.995 1210.57 876.857 1204.18 874.841C1200.46 873.671 1196.81 872.313 1193.1 871.09C1188.34 869.517 1185.49 866.304 1185.17 862.069C1184.85 857.767 1187.01 854.271 1191.8 852.174C1194.42 851.031 1197.28 850.44 1200.03 849.606C1200.1 849.794 1200.17 849.996 1200.22 850.184Z" fill="white" fill-opacity="0.08"/>
<path d="M845.007 56.7605C843.893 68.8198 836.588 74.3049 825.901 69.2769C822.611 67.7308 819.08 66.6688 815.642 65.4588C809.734 63.375 803.746 61.4794 797.892 59.2342C792.682 57.2311 791.299 50.6032 795.367 46.1129C798.281 42.8863 801.772 40.1303 805.209 37.4281C810.822 33.005 816.958 29.3886 821.47 23.4598C823.47 20.8382 827.847 19.5745 831.392 18.7141C835.112 17.7999 838.885 20.9189 839.61 24.9117C841.476 35.0619 843.154 45.2525 844.9 55.4161C844.98 55.8732 844.98 56.3572 845.007 56.7605Z" fill="white" fill-opacity="0.08"/>
<path d="M629.946 982.944C626.186 981.344 622.131 980.201 618.721 978.05C608.288 971.476 600.487 962.347 594.888 951.377C593.8 949.24 593.115 946.806 592.739 944.427C591.719 937.853 594.807 931.695 600.352 928.67C605.884 925.645 613.068 926.089 617.62 930.956C624.776 938.578 631.57 946.605 637.921 954.913C640.499 958.274 641.896 962.737 643.118 966.905C645.494 975.052 639.049 982.487 629.946 982.944Z" fill="white" fill-opacity="0.08"/>
<path d="M1416.99 310.812C1424.75 310.906 1427.11 313.702 1426.17 319.873C1425.96 321.311 1425.77 322.804 1425.26 324.161C1422.01 332.819 1418.77 341.491 1415.32 350.081C1412.38 357.408 1406.07 359.559 1399.29 355.62C1396.89 354.222 1394.73 352.38 1392.55 350.619C1387.53 346.559 1382.64 342.324 1377.55 338.345C1373.28 334.997 1369.78 331.314 1371.5 325.412C1373.18 319.644 1378.08 318.582 1383.26 317.843C1391.81 316.646 1400.35 315.302 1408.84 313.675C1412.11 313.03 1415.19 311.457 1416.99 310.812Z" fill="white" fill-opacity="0.08"/>
<path d="M323.553 274.19C324.976 259.644 329.138 247.625 336.295 236.762C340.081 231.021 346.218 229.274 351.588 231.694C356.879 234.073 359.457 239.868 357.846 246.563C356.812 250.824 355.267 254.952 354.046 259.173C352.891 263.153 351.682 267.132 350.85 271.192C349.467 277.914 350.622 280.092 356.664 283.251C360.316 285.16 360.571 286.653 357.725 289.583C347.695 299.949 332.777 297.717 326.574 284.676C324.842 281.02 324.278 276.798 323.553 274.19Z" fill="white" fill-opacity="0.08"/>
<path d="M983.494 298.268C983.776 310.758 976.19 315.1 967.019 311.228C959.675 308.123 951.699 306.483 943.992 304.251C942.354 303.78 940.622 303.659 938.997 303.175C935.251 302.073 932.445 299.882 931.626 295.848C930.793 291.815 932.404 288.575 935.56 286.249C941.548 281.84 947.658 277.605 953.78 273.384C956.493 271.515 959.379 269.915 962.105 268.06C968.778 263.529 977.251 266.204 979.117 274.083C981.185 282.835 982.353 291.815 983.494 298.268Z" fill="white" fill-opacity="0.08"/>
<path d="M1502.99 959.443C1499.48 959.417 1496.72 957.736 1495.16 954.819C1490.88 946.752 1484.8 940.501 1477.41 935.218C1473.34 932.3 1471.23 927.917 1472.76 922.647C1474.31 917.337 1478.54 915.441 1483.51 914.581C1493.56 912.847 1503.63 911.086 1513.69 909.338C1514.54 909.19 1515.37 908.961 1516.21 908.921C1521.96 908.612 1525.45 913.089 1523.57 918.534C1519.68 929.813 1515.72 941.066 1511.72 952.305C1510.05 957.01 1506.96 959.43 1502.99 959.443Z" fill="white" fill-opacity="0.08"/>
<path d="M1196.9 444.781C1193.86 443.652 1190.61 442.872 1187.79 441.326C1176.19 435.021 1166.95 426.107 1160.01 414.868C1159.31 413.725 1158.66 412.529 1158.18 411.292C1156.3 406.479 1156.58 401.868 1160.15 397.942C1163.7 394.03 1168.37 392.914 1173.21 394.594C1176.47 395.724 1179.83 397.458 1182.3 399.811C1190.07 407.205 1197.48 414.962 1204.91 422.706C1206.3 424.158 1207.34 426.094 1208.13 427.976C1211.71 436.513 1206.33 444.378 1196.9 444.781Z" fill="white" fill-opacity="0.08"/>
<path d="M1632.08 142.452C1622.38 142.91 1612.7 143.367 1603.01 143.824C1596.83 144.12 1592.24 141.592 1590.17 136.752C1588.05 131.791 1589.28 126.185 1594.1 122.313C1600.74 116.976 1607.61 111.921 1614.59 107.054C1619.12 103.895 1625.4 104.191 1628.42 108.829C1633.35 116.385 1637.66 124.518 1640.93 132.921C1643.1 138.487 1638.12 143.501 1632.12 143.38C1632.12 143.071 1632.09 142.762 1632.08 142.452Z" fill="white" fill-opacity="0.08"/>
<path d="M738.598 1035.23C740.571 1029.02 742.116 1022.63 744.667 1016.66C747.097 1010.97 752.226 1008.49 757.261 1009.27C762.511 1010.09 766.499 1014.11 767.359 1020.3C767.963 1024.62 768.003 1029.04 767.922 1033.41C767.842 1037.63 769.158 1040.85 772.515 1043.56C774.824 1045.43 776.905 1047.84 778.422 1050.41C781.135 1054.96 779.819 1058.98 774.999 1061.27C772.864 1062.29 770.38 1062.95 768.016 1063.07C752.642 1063.84 739.35 1050.86 739.591 1035.52C739.269 1035.44 738.933 1035.33 738.598 1035.23Z" fill="white" fill-opacity="0.08"/>
<path d="M957.07 1130.36C953.297 1130.36 949.524 1130.5 945.764 1130.33C936.419 1129.89 931.841 1122.37 935.896 1113.94C937.52 1110.57 939.601 1107.35 941.857 1104.34C945.496 1099.46 949.376 1094.76 953.27 1090.08C957.486 1085.04 962.683 1085.32 966.107 1090.86C971.088 1098.91 975.949 1107.03 980.715 1115.21C984.206 1121.19 981.064 1127.55 974.19 1128.61C971.303 1129.05 968.376 1129.19 965.462 1129.4C962.669 1129.62 959.876 1129.75 957.07 1129.91C957.07 1130.06 957.07 1130.21 957.07 1130.36Z" fill="white" fill-opacity="0.08"/>
<path d="M1705 296.211C1704.25 313.084 1691.14 335.468 1671.38 338.17C1668.8 338.52 1665.95 338.412 1663.46 337.713C1656.02 335.602 1653.41 326.729 1658.74 320.612C1661.63 317.305 1665.66 314.952 1669.32 312.371C1672.6 310.059 1676.23 308.23 1679.42 305.824C1683.62 302.664 1686.3 298.309 1687.91 293.294C1690 286.76 1692.98 284.26 1697.64 285.039C1702.19 285.779 1705.04 290.121 1705 296.211Z" fill="white" fill-opacity="0.08"/>
<path d="M1157.58 800.388C1156.5 805.496 1155.99 809.503 1154.78 813.281C1153.47 817.421 1150.58 819.021 1146.51 817.609C1143.16 816.44 1139.64 814.732 1137.11 812.299C1128.39 803.897 1124.33 793.41 1125.14 781.243C1125.49 775.96 1127.46 771.241 1131.46 767.625C1138.63 761.131 1149.06 763.471 1151.7 772.72C1154.34 782.064 1155.78 791.73 1157.58 800.388Z" fill="white" fill-opacity="0.08"/>
<path d="M1674.01 189.843C1678.31 191.335 1682.4 192.531 1686.31 194.158C1689.54 195.502 1692.75 197.089 1695.64 199.052C1698.23 200.813 1699.37 203.609 1698.14 206.795C1696.94 209.888 1694.24 210.748 1691.28 210.6C1688.74 210.466 1686.2 209.955 1683.69 209.498C1676.49 208.207 1669.32 206.728 1662.1 205.545C1650.85 203.717 1646.75 194.911 1653.79 185.89C1659.68 178.321 1666.54 171.492 1673.26 164.595C1676.35 161.422 1680.82 161.462 1683.96 163.909C1687.06 166.316 1688.12 170.631 1686.11 174.49C1684.89 176.829 1683.1 178.913 1681.39 180.97C1679.3 183.51 1677.02 185.89 1674.83 188.364C1674.6 188.633 1674.48 188.982 1674.01 189.843Z" fill="white" fill-opacity="0.08"/>
<path d="M151.928 984.449C141.884 984.006 135.573 973.573 140.541 964.808C142.327 961.662 145.241 958.798 148.289 956.809C156.332 951.552 164.67 946.739 173.008 941.966C177.305 939.506 182.085 940.259 185.16 943.351C188.369 946.564 189.08 951.458 186.449 955.841C179.587 967.281 169.611 975.549 158.48 982.487C156.614 983.643 154.13 983.818 151.928 984.449Z" fill="white" fill-opacity="0.08"/>
<path d="M16.2334 847.926C16.6362 846.003 17.0658 843.22 17.7909 840.532C19.3619 834.643 19.6036 828.781 18.328 822.799C17.8849 820.702 17.7103 818.389 18.1266 816.319C19.2545 810.686 24.7998 807.513 30.1304 809.637C32.6413 810.632 35.0044 812.42 36.9379 814.356C41.8388 819.277 46.4712 824.452 51.1572 829.575C54.3663 833.097 55.0242 837.023 52.3657 840.962C50.5127 843.718 48.0959 846.407 45.3164 848.141C39.7711 851.596 33.8631 854.5 27.9686 857.377C22.7858 859.891 16.1796 854.943 16.2334 847.926Z" fill="white" fill-opacity="0.08"/>
<path d="M100.784 493.542C115.903 493.932 123.543 506.502 117.353 519.328C112.694 528.981 103.845 533.82 94.9027 531.602C81.8919 528.376 76.5882 515.805 83.3554 504.244C87.4776 497.226 93.5869 493.69 100.784 493.542Z" fill="white" fill-opacity="0.08"/>
<path d="M1575.68 491.889C1568.9 491.929 1563.53 485.946 1564.9 479.224C1565.51 476.24 1566.9 473.04 1568.9 470.768C1575.82 462.903 1583.15 455.415 1590.33 447.792C1590.67 447.443 1591.08 447.16 1591.47 446.878C1596.82 442.845 1602.83 442.885 1606.74 446.959C1610.65 451.046 1610.38 457.042 1606.08 462.218C1599.45 470.177 1592.83 478.149 1586.21 486.108C1582.85 490.127 1579.68 491.862 1575.68 491.889Z" fill="white" fill-opacity="0.08"/>
<path d="M1146.53 35.7073C1150.93 35.6131 1155.05 36.4467 1158.4 39.5388C1163.69 44.419 1163.08 51.6249 1156.61 54.5826C1147.02 58.9788 1139.89 65.647 1134.52 74.641C1131.27 80.0859 1125.86 80.0859 1122.05 74.9637C1117.95 69.4651 1117.68 63.133 1118.97 56.7471C1121.55 43.9484 1132.45 35.7476 1146.53 35.7073Z" fill="white" fill-opacity="0.08"/>
<path d="M1574.14 323.987C1577.59 325.049 1581.28 325.64 1584.42 327.28C1589.59 329.996 1589.41 335.992 1584.34 338.896C1571.76 346.129 1560.69 355.123 1551.72 366.631C1548.53 370.704 1543.93 370.583 1541.31 366.093C1540.03 363.888 1539.24 361.065 1539.24 358.511C1539.26 341.894 1557.31 324.377 1574.14 323.987Z" fill="white" fill-opacity="0.08"/>
<path d="M450.546 492.588C455.367 493.179 460.992 493.112 465.047 497.777C465.477 498.261 466.336 498.395 467.008 498.651C472.58 500.668 474.487 505.548 471.492 510.549C467.196 517.728 462.872 524.894 458.401 531.965C454.521 538.109 445.498 538.028 443.108 531.253C440.073 522.595 437.911 513.466 436.77 504.378C435.87 497.186 442.02 492.48 450.546 492.588Z" fill="white" fill-opacity="0.08"/>
<path d="M318.303 475.581C319.538 466.695 320.599 457.862 322.049 449.096C323.043 443.06 327.379 439.524 332.509 439.901C337.839 440.291 341.773 444.485 341.948 450.629C342.069 454.877 341.585 459.139 341.303 463.387C340.82 470.808 340.283 478.23 339.786 485.637C339.356 491.969 335.892 496.15 330.642 496.661C325.5 497.159 320.867 493.596 319.592 487.533C318.786 483.634 318.719 479.574 318.303 475.581Z" fill="white" fill-opacity="0.08"/>
<path d="M456.159 884.91C456.159 889.535 456.239 894.173 456.145 898.798C455.971 906.474 449.767 911.112 442.624 908.41C436.045 905.91 429.667 902.777 423.396 899.551C419.301 897.453 416.132 894.079 416.884 889.064C417.677 883.835 420.631 879.546 425.854 878.013C432.5 876.077 439.308 874.558 446.142 873.456C452.439 872.434 456.937 877.677 456.159 884.91Z" fill="white" fill-opacity="0.08"/>
<path d="M689.951 697.783C679.679 697.716 670.146 688.87 670.2 679.446C670.254 669.295 678.216 659.979 686.85 659.938C696.383 659.898 707.702 670.653 707.635 679.674C707.568 687.552 697.524 697.837 689.951 697.783Z" fill="white" fill-opacity="0.08"/>
<path d="M899.078 499.323C898.393 503.424 897.104 506.664 893.493 508.304C889.988 509.89 886.658 508.801 884.107 506.206C881.126 503.168 878.521 499.78 875.729 496.554C870.317 490.302 864.947 484.01 859.442 477.84C856.38 474.398 855.548 470.378 857.495 466.762C859.495 463.078 863.658 461.25 868.156 462.46C870.103 462.984 872.117 463.871 873.701 465.108C881.932 471.508 889.182 478.915 894.473 487.963C896.514 491.445 897.574 495.518 899.078 499.323Z" fill="white" fill-opacity="0.08"/>
<path d="M1328.75 243.753C1328.89 238.389 1329.93 233.441 1333.15 229.18C1337.23 223.775 1343.8 221.584 1349.64 223.614C1355.81 225.778 1359.09 232.299 1355.49 237.663C1350.85 244.586 1350.24 251.752 1350.94 259.576C1351.37 264.416 1348.36 267.119 1343.53 266.675C1338.79 266.245 1335.47 263.475 1332.96 259.657C1329.79 254.777 1328.92 249.278 1328.75 243.753Z" fill="white" fill-opacity="0.08"/>
<path d="M1648.93 271.501C1647.28 270.869 1643.92 270.049 1641.03 268.396C1633.22 263.959 1626.69 257.936 1621.4 250.663C1620.07 248.835 1619.04 246.657 1618.37 244.479C1617.07 240.244 1618.74 236.063 1622.18 233.952C1625.47 231.949 1629.82 232.312 1633.03 235.122C1634.86 236.722 1636.28 238.752 1638.09 240.365C1642.91 244.654 1647.83 248.821 1652.71 253.016C1654.19 254.28 1655.8 255.409 1657.13 256.82C1659.74 259.59 1660.84 262.83 1659.27 266.54C1657.92 269.754 1654.67 271.555 1648.93 271.501Z" fill="white" fill-opacity="0.08"/>
<path d="M1300.28 249.964C1300.29 257.089 1295.96 263.233 1289.69 264.954C1283.5 266.661 1277.01 263.717 1273.48 257.331C1272.32 255.234 1271.33 252.895 1270.93 250.556C1269.38 241.575 1275.02 233.791 1283.28 233.146C1292.06 232.447 1300.25 240.567 1300.28 249.964Z" fill="white" fill-opacity="0.08"/>
<path d="M1673.74 1110.92C1665.81 1110.34 1660.61 1108.58 1657.88 1102.82C1655.47 1097.73 1656.77 1092.96 1660.25 1088.88C1664.46 1083.95 1669.94 1081.99 1676.32 1083.56C1678.76 1084.16 1681.15 1085.28 1683.35 1086.54C1690.66 1090.75 1690.99 1101.9 1683.64 1106.88C1680.25 1109.16 1675.93 1110.04 1673.74 1110.92Z" fill="white" fill-opacity="0.08"/>
<path d="M562.407 111.625C553.908 110.281 545.516 106.06 539.81 97.5227C537.285 93.7449 537.769 89.2546 540.387 86.2701C542.992 83.2989 547.342 82.2503 551.451 84.4148C557.695 87.7086 563.817 91.2981 569.725 95.1431C573.727 97.7512 575.042 101.973 573.834 105.643C572.599 109.394 568.879 111.639 562.407 111.625Z" fill="white" fill-opacity="0.08"/>
<path d="M449.365 820.702C457.139 820.608 463.436 826.778 463.476 834.495C463.503 842.118 457.515 848.356 449.969 848.544C442.235 848.732 435.803 842.602 435.669 834.925C435.535 827.155 441.657 820.796 449.365 820.702Z" fill="white" fill-opacity="0.08"/>
<path d="M1234.86 600.798C1226.55 600.731 1219.69 594.52 1219.65 587.059C1219.61 580.041 1225.89 574.166 1233.36 574.246C1241.72 574.327 1248.92 580.605 1248.85 587.744C1248.79 594.964 1242.45 600.866 1234.86 600.798Z" fill="white" fill-opacity="0.08"/>
<path d="M627.999 282.552C632.846 282.619 636.203 283.762 638.472 287.096C641.278 291.237 639.908 295.969 635.343 297.973C630.885 299.935 626.334 301.696 621.93 303.74C620.251 304.52 618.976 306.267 617.27 306.872C615.015 307.652 612.275 308.526 610.194 307.881C608.489 307.343 606.972 304.829 606.274 302.88C605.79 301.549 606.448 299.424 607.267 298.053C611.188 291.533 616.478 286.411 623.635 283.52C625.273 282.835 627.153 282.727 627.999 282.552Z" fill="white" fill-opacity="0.08"/>
<path d="M537.836 330.937C537.768 332.066 537.822 333.545 537.567 334.97C536.224 342.445 528.302 345.658 522.139 341.289C517.158 337.753 514.553 330.171 516.312 324.336C517.735 319.631 522.005 316.539 526.745 316.767C531.834 317.009 536.479 321.083 537.446 326.232C537.688 327.67 537.688 329.149 537.836 330.937Z" fill="white" fill-opacity="0.08"/>
<path d="M1669.1 30.8271C1675 30.7599 1680.19 36.7962 1680.32 43.9215C1680.44 49.9175 1676.02 54.7574 1670.37 54.8515C1664.26 54.9456 1658.93 49.1781 1658.96 42.5099C1658.98 35.9224 1663.35 30.8943 1669.1 30.8271Z" fill="white" fill-opacity="0.08"/>
<path d="M1688.15 609.645C1682.09 609.564 1677.65 605.383 1677.69 599.803C1677.73 594.157 1682.55 589.653 1688.43 589.774C1693.91 589.882 1698.31 594.399 1698.29 599.898C1698.27 605.396 1693.77 609.725 1688.15 609.645Z" fill="white" fill-opacity="0.08"/>
<path d="M1051.66 279.742C1051.72 285.16 1047.26 289.395 1041.42 289.489C1035.59 289.583 1031.16 285.402 1031.19 279.85C1031.23 274.378 1035.81 269.915 1041.35 269.942C1046.98 269.969 1051.61 274.378 1051.66 279.742Z" fill="white" fill-opacity="0.08"/>
<path d="M1573.63 362.315C1574.84 362.477 1576.3 362.275 1577.19 362.894C1578.68 363.929 1580.49 365.327 1580.85 366.886C1581.17 368.244 1580.1 371 1578.96 371.471C1574.65 373.259 1570.11 374.684 1565.52 375.558C1564.27 375.8 1561.62 373.85 1561.29 372.493C1560.85 370.705 1561.38 367.586 1562.67 366.685C1565.83 364.453 1569.65 363.176 1573.21 361.509C1573.35 361.778 1573.48 362.047 1573.63 362.315Z" fill="white" fill-opacity="0.08"/>
<path d="M1374.57 451.812C1367.35 451.839 1361.59 446.085 1361.6 438.839C1361.62 431.619 1367.44 425.852 1374.64 425.919C1381.7 425.986 1387.35 431.646 1387.42 438.731C1387.5 445.991 1381.81 451.785 1374.57 451.812Z" fill="white" fill-opacity="0.08"/>
<path d="M990.691 642.313C985.911 640.068 980.943 638.146 976.418 635.457C973.545 633.75 973.021 630.536 974.472 627.323C976.257 623.357 980.326 620.4 984.072 621.637C988.731 623.169 993.243 625.508 997.338 628.211C1000.06 630.012 1000.36 633.454 999.057 636.546C997.62 639.974 994.693 641.278 991.148 641.386C991 641.695 990.853 642.004 990.691 642.313Z" fill="white" fill-opacity="0.08"/>
</g>
<defs>
<clipPath id="clip0_3_1425">
<rect width="1728" height="1202" fill="white"/>
</clipPath>
</defs>
</svg>
